<svg id="Duotone" xmlns="http://www.w3.org/2000/svg" xmlns:xlink="http://www.w3.org/1999/xlink" viewBox="0 0 100 112"><defs><style>.cls-1,.cls-10,.cls-3,.cls-9{fill:none;}.cls-2{fill:#f0f2ff;}.cls-10,.cls-11,.cls-12,.cls-3,.cls-5,.cls-6,.cls-9{stroke:#4550e5;}.cls-3,.cls-5,.cls-6{stroke-linecap:round;}.cls-10,.cls-12,.cls-3,.cls-5,.cls-6{stroke-linejoin:round;}.cls-11,.cls-12,.cls-4,.cls-6{fill:#fff;}.cls-5,.cls-7{fill:#d6daff;}.cls-8{clip-path:url(#clip-path);}.cls-11,.cls-9{stroke-miterlimit:10;}</style><clipPath id="clip-path"><circle class="cls-1" cx="50.5" cy="56.08" r="40"/></clipPath></defs><title>17- job-interview-1</title><g id="Icons"><g id="Background"><g id="New_Symbol_56-12" data-name="New Symbol 56"><path class="cls-2" d="M90.5,56.08a40,40,0,1,0-76.44,16.5H86.94A39.92,39.92,0,0,0,90.5,56.08Z"/><line class="cls-3" x1="11.5" y1="72.58" x2="89.5" y2="72.58"/><line class="cls-3" x1="7" y1="72.58" x2="9.5" y2="72.58"/><line class="cls-3" x1="91.5" y1="72.58" x2="94" y2="72.58"/></g></g><g id="Scene"><path class="cls-4" d="M77,65.08a15.5,15.5,0,0,0-31,0v7.5H77Z"/><path class="cls-3" d="M77,65.08a15.5,15.5,0,0,0-31,0v7.5H77Z"/><path class="cls-5" d="M68.5,52.4a3.82,3.82,0,0,0-3.83-3.82H58.33A3.82,3.82,0,0,0,54.5,52.4a3.88,3.88,0,0,0,.23,1.31l1.36,3.73a1,1,0,0,0,.6.6,1,1,0,0,0,.85-.09l4-2.37,4,2.37a1,1,0,0,0,.85.09,1,1,0,0,0,.6-.6l1.36-3.73A3.88,3.88,0,0,0,68.5,52.4Z"/><line class="cls-3" x1="61.5" y1="55.58" x2="61.5" y2="72.58"/><path class="cls-4" d="M65,51.25a2,2,0,0,1-.59,1.41L61.5,55.58l-2.91-2.92A2,2,0,0,1,58,51.25V46.58h7Z"/><path class="cls-3" d="M65,51.25a2,2,0,0,1-.59,1.41L61.5,55.58l-2.91-2.92A2,2,0,0,1,58,51.25V46.58h7Z"/><path class="cls-6" d="M71.5,36.08v-2.5a10,10,0,0,0-20,0v2.5a2,2,0,0,0,0,4l.12,0a10,10,0,0,0,19.76,0l.12,0a2,2,0,0,0,0-4Z"/><path class="cls-3" d="M67,37.08a1.63,1.63,0,0,0-3,0"/><path class="cls-3" d="M59,37.08a1.63,1.63,0,0,0-3,0"/><circle class="cls-7" cx="55.75" cy="40.33" r="1.25"/><circle class="cls-7" cx="67.25" cy="40.33" r="1.25"/><path class="cls-3" d="M58.49,42.87a4.36,4.36,0,0,0,6,0"/><circle class="cls-3" cx="64" cy="66.08" r="0.5"/><circle class="cls-3" cx="64" cy="62.08" r="0.5"/><circle class="cls-3" cx="64" cy="70.08" r="0.5"/><line class="cls-3" x1="52" y1="63.58" x2="52" y2="72.58"/><line class="cls-3" x1="71" y1="63.58" x2="71" y2="72.58"/><path class="cls-4" d="M53,33.58s8.23.45,13.75-5.19a.84.84,0,0,1,1.34.2A18.75,18.75,0,0,1,70,37.08a1.47,1.47,0,0,0,1.5-1.5,3.13,3.13,0,0,0,2.5-3c0-2.5,0-8.5-5.5-8.5,0,0-6-6-14.5-.5a11.88,11.88,0,0,0-5,10.5,1.47,1.47,0,0,0,1.5,1.5,2.23,2.23,0,0,0,2,1.5S52.5,33.58,53,33.58Z"/><path class="cls-3" d="M53,33.58s8.23.45,13.75-5.19a.84.84,0,0,1,1.34.2A18.75,18.75,0,0,1,70,37.08a1.47,1.47,0,0,0,1.5-1.5,3.13,3.13,0,0,0,2.5-3c0-2.5,0-8.5-5.5-8.5,0,0-6-6-14.5-.5a11.88,11.88,0,0,0-5,10.5,1.47,1.47,0,0,0,1.5,1.5,2.23,2.23,0,0,0,2,1.5S52.5,33.58,53,33.58Z"/><g class="cls-8"><path class="cls-6" d="M32.51,64.77l-4.8-3.64a3.65,3.65,0,0,0-1.13-.53l-5.25-1.46c-.69-.54-.64.39-1.17,1.07s-1.91,3.49-1.23,4l6,4.58h0l.22,1.36a1.57,1.57,0,0,0,3.1-.46,1.52,1.52,0,0,0,1.07,0,1.56,1.56,0,0,0,.91-2l-.35-.93.66.5a1.57,1.57,0,1,0,1.93-2.48Z"/><path class="cls-9" d="M26.63,66.93l.71,1.86a1.57,1.57,0,0,0,2.93-1.11"/><line class="cls-9" x1="27.08" y1="64.59" x2="30.58" y2="67.25"/><line class="cls-3" x1="23.69" y1="62.7" x2="22.32" y2="62.29"/><path class="cls-4" d="M22.62,80.65l-8.28-.78h0C13,69.7,12.27,58.76,25.44,52l.75-.39a1.57,1.57,0,0,1,1.45,2.79l-.75.39c-3.32,1.71-5.62,3.69-6.33,7.34-1.12,5.51,1.91,3.59,2.66,1.65L25,59.7a1.57,1.57,0,0,1,2.9,1.21C26,69,26.49,70.59,24.5,73.3,23,75.31,23,76.87,22.62,80.65Z"/><path class="cls-3" d="M22.62,80.65l-8.28-.78h0C13,69.7,12.27,58.76,25.44,52l.75-.39a1.57,1.57,0,0,1,1.45,2.79l-.75.39c-3.32,1.71-5.62,3.69-6.33,7.34-1.12,5.51,1.91,3.59,2.66,1.65L25,59.7a1.57,1.57,0,0,1,2.9,1.21C26,69,26.49,70.59,24.5,73.3,23,75.31,23,76.87,22.62,80.65Z"/><rect class="cls-5" x="24.09" y="45.48" width="24" height="31" rx="2" ry="2" transform="translate(-6.43 4.3) rotate(-6.26)"/><path class="cls-6" d="M27.59,48h17a1,1,0,0,1,1,1V71a3,3,0,0,1-3,3h-16a0,0,0,0,1,0,0V49a1,1,0,0,1,1-1Z" transform="translate(-6.43 4.3) rotate(-6.26)"/><path class="cls-7" d="M36.28,44.36a2,2,0,0,0-4,.43l-2,.22a2,2,0,0,0-1.77,2.21l.11,1a1,1,0,0,0,1.11.89L39.7,48a1,1,0,0,0,.88-1.11l-.11-1a2,2,0,0,0-2.2-1.77Z"/><path class="cls-3" d="M36.28,44.36a2,2,0,0,0-4,.43l-2,.22a2,2,0,0,0-1.77,2.21l.11,1a1,1,0,0,0,1.11.89L39.7,48a1,1,0,0,0,.88-1.11l-.11-1a2,2,0,0,0-2.2-1.77Z"/><rect class="cls-6" x="31.41" y="50.52" width="8" height="8.5" rx="1" ry="1" transform="translate(-5.76 4.19) rotate(-6.26)"/><path class="cls-7" d="M34,54a1.31,1.31,0,0,0,2.59-.29l-.07-.6a1.3,1.3,0,0,0-2.58.28Z"/><path class="cls-7" d="M32.8,58.83l0-.16a3,3,0,0,1,6-.66v.15Z"/><path class="cls-6" d="M28.06,74.94a3,3,0,0,1-3.31-2.66l15-1.65a1,1,0,0,1,1.06.69A3,3,0,0,0,44,73.19Z"/><rect class="cls-3" x="29.51" y="62.44" width="5.19" height="5.19" rx="1" ry="1" transform="translate(-6.93 3.91) rotate(-6.28)"/><rect class="cls-3" x="37.54" y="61.62" width="5.19" height="5.19" rx="1" ry="1" transform="translate(-6.79 4.78) rotate(-6.28)"/><polyline class="cls-3" points="31 64.87 32.39 65.98 35.58 60.58"/><path class="cls-6" d="M20.82,65.66c.71.41,2-.73,2.4-1.88L25,59.7a1.57,1.57,0,0,1,2.9,1.21C26,69,26.49,70.59,24.5,73.3c-1.49,2-1.53,3.57-1.88,7.35l-4.05-.38"/><rect class="cls-7" x="15.34" y="76.89" width="5.5" height="12.17" rx="1" ry="1" transform="translate(-66.21 93.28) rotate(-84.67)"/><rect class="cls-10" x="15.34" y="76.89" width="5.5" height="12.17" rx="1" ry="1" transform="translate(-66.21 93.28) rotate(-84.67)"/><path class="cls-6" d="M18.28,73.77h1.36a0,0,0,0,1,0,0v10.6a0,0,0,0,1,0,0H18.28a1,1,0,0,1-1-1v-8.6A1,1,0,0,1,18.28,73.77Z" transform="translate(98.9 68.04) rotate(95.33)"/><path class="cls-11" d="M65,73.14a1.52,1.52,0,0,1,1.49,1.55l-.12,4.94a1.52,1.52,0,0,1-3-.08l.12-4.93A1.52,1.52,0,0,1,65,73.14Z"/><path class="cls-11" d="M63.38,72.71a1.52,1.52,0,0,1,.69,2l-1.71,3.58A1.52,1.52,0,0,1,59.64,77l1.71-3.58A1.52,1.52,0,0,1,63.38,72.71Z"/><path class="cls-4" d="M68.84,79.17a12.9,12.9,0,0,1,5,2.7l1.57,1.3,6.47-6.86L80.36,75.1c-2.35-1.61-2.85-5.63-7.06-7.67C68,64.85,61.54,65.7,56.07,73a1.52,1.52,0,0,0,2.42,1.83c.36-.47.73-.92,1.09-1.34a20.13,20.13,0,0,1,2.31-2.2,8.47,8.47,0,0,1,6.13-2,1.77,1.77,0,0,1,1.64,2.62,3.37,3.37,0,0,1-4.21.92l-3.56-1.5h0a20.13,20.13,0,0,0-2.31,2.2h0a1.75,1.75,0,0,0,.48.32C66.14,78.11,67.36,78.65,68.84,79.17Z"/><path class="cls-12" d="M69.66,71.84a3.37,3.37,0,0,1-4.21.92l-3.56-1.5a8.47,8.47,0,0,1,6.13-2A1.77,1.77,0,0,1,69.66,71.84Z"/><path class="cls-3" d="M68.84,79.17a12.9,12.9,0,0,1,5,2.7l1.57,1.3,6.47-6.86L80.36,75.1c-2.35-1.61-2.85-5.63-7.06-7.67C68,64.85,61.54,65.7,56.07,73a1.52,1.52,0,0,0,2.42,1.83c.36-.47.73-.92,1.09-1.34a20.13,20.13,0,0,1,2.31-2.2,8.47,8.47,0,0,1,6.13-2,1.77,1.77,0,0,1,1.64,2.62,3.37,3.37,0,0,1-4.21.92l-3.56-1.5h0a20.13,20.13,0,0,0-2.31,2.2h0a1.75,1.75,0,0,0,.48.32C66.14,78.11,67.36,78.65,68.84,79.17Z"/><rect class="cls-7" x="77.86" y="75.79" width="5.32" height="11.77" rx="1" ry="1" transform="translate(83.14 196.33) rotate(-136.72)"/><rect class="cls-10" x="77.86" y="75.79" width="5.32" height="11.77" rx="1" ry="1" transform="translate(83.14 196.33) rotate(-136.72)"/><path class="cls-6" d="M77.61,73.94h1.28a0,0,0,0,1,0,0V84.2a0,0,0,0,1,0,0H77.61a1,1,0,0,1-1-1V74.94A1,1,0,0,1,77.61,73.94Z" transform="translate(75.35 -31.8) rotate(43.28)"/><rect class="cls-7" x="62.51" y="65.01" width="3.4" height="16.15" transform="translate(92.64 -19.95) rotate(58.29)"/><path class="cls-4" d="M56.45,75.88c-.08,0-2.73,3.68-2.73,3.68l4.51-.79Z"/><rect class="cls-3" x="62.51" y="65.01" width="3.4" height="16.15" transform="translate(92.64 -19.95) rotate(58.29)"/><rect class="cls-4" x="70.1" y="67.54" width="3.4" height="1.7" transform="translate(92.23 -28.64) rotate(58.28)"/><rect class="cls-3" x="70.1" y="67.54" width="3.4" height="1.7" transform="translate(92.23 -28.64) rotate(58.28)"/><path class="cls-4" d="M74.5,68.72a1.7,1.7,0,0,0-1.79-2.89l-1.08.67,1.79,2.89Z"/><path class="cls-3" d="M74.5,68.72a1.7,1.7,0,0,0-1.79-2.89l-1.08.67,1.79,2.89Z"/><line class="cls-3" x1="53.72" y1="79.56" x2="53" y2="80.01"/><path class="cls-3" d="M56.45,75.88c-.08,0-2.73,3.68-2.73,3.68l4.51-.79Z"/><path class="cls-3" d="M69.66,71.84a3.37,3.37,0,0,1-4.21.92L61.24,71a1.52,1.52,0,1,0-1.18,2.8c6.08,4.32,7.3,4.86,8.78,5.38"/><path class="cls-4" d="M69.66,71.84a3.37,3.37,0,0,1-4.21.92L61.24,71a1.52,1.52,0,1,0-1.18,2.8c6.08,4.32,7.3,4.86,8.78,5.38"/><path class="cls-3" d="M69.66,71.84a3.37,3.37,0,0,1-4.21.92L61.24,71a1.52,1.52,0,1,0-1.18,2.8c6.08,4.32,7.3,4.86,8.78,5.38"/></g></g></g></svg>