<svg id="Duotone" xmlns="http://www.w3.org/2000/svg" viewBox="0 0 100 112"><defs><style>.cls-1{fill:#f0f2ff;}.cls-2{fill:#d6daff;}.cls-3{fill:#fff;}.cls-4{fill:none;stroke:#4550e5;stroke-linecap:round;stroke-linejoin:round;}</style></defs><title>13- star-rate</title><circle class="cls-1" cx="51" cy="53" r="40"/><ellipse class="cls-2" cx="55.4" cy="84.73" rx="5.25" ry="1.58"/><path class="cls-3" d="M23.34,46.53,22.51,49a.66.66,0,0,0,.09.58l1.55,2.06a.64.64,0,0,1-.52,1l-2.57,0a.67.67,0,0,0-.53.26L19.05,55a.64.64,0,0,1-1.12-.18l-.76-2.46a.64.64,0,0,0-.42-.41l-2.46-.77A.62.62,0,0,1,14.12,50l2.1-1.49a.61.61,0,0,0,.26-.52l0-2.58a.63.63,0,0,1,1-.51l2.06,1.54a.64.64,0,0,0,.58.09l2.44-.83A.63.63,0,0,1,23.34,46.53Z"/><path class="cls-4" d="M23.34,46.53,22.51,49a.66.66,0,0,0,.09.58l1.55,2.06a.64.64,0,0,1-.52,1l-2.57,0a.67.67,0,0,0-.53.26L19.05,55a.64.64,0,0,1-1.12-.18l-.76-2.46a.64.64,0,0,0-.42-.41l-2.46-.77A.62.62,0,0,1,14.12,50l2.1-1.49a.61.61,0,0,0,.26-.52l0-2.58a.63.63,0,0,1,1-.51l2.06,1.54a.64.64,0,0,0,.58.09l2.44-.83A.63.63,0,0,1,23.34,46.53Z"/><path class="cls-3" d="M38.92,25.11l-.83,2.44a.64.64,0,0,0,.09.58l1.54,2.06a.63.63,0,0,1-.51,1l-2.58,0a.61.61,0,0,0-.52.26l-1.49,2.1a.62.62,0,0,1-1.11-.17l-.77-2.46a.64.64,0,0,0-.41-.42l-2.46-.76a.64.64,0,0,1-.18-1.12l2.11-1.48a.67.67,0,0,0,.26-.53L32,24a.64.64,0,0,1,1-.52l2.06,1.55a.66.66,0,0,0,.58.09l2.44-.83A.63.63,0,0,1,38.92,25.11Z"/><path class="cls-4" d="M38.92,25.11l-.83,2.44a.64.64,0,0,0,.09.58l1.54,2.06a.63.63,0,0,1-.51,1l-2.58,0a.61.61,0,0,0-.52.26l-1.49,2.1a.62.62,0,0,1-1.11-.17l-.77-2.46a.64.64,0,0,0-.41-.42l-2.46-.76a.64.64,0,0,1-.18-1.12l2.11-1.48a.67.67,0,0,0,.26-.53L32,24a.64.64,0,0,1,1-.52l2.06,1.55a.66.66,0,0,0,.58.09l2.44-.83A.63.63,0,0,1,38.92,25.11Z"/><path class="cls-3" d="M71.22,25.11l-.83,2.44a.66.66,0,0,0,.09.58L72,30.19a.64.64,0,0,1-.52,1l-2.57,0a.67.67,0,0,0-.53.26l-1.48,2.11a.64.64,0,0,1-1.12-.18l-.76-2.46a.64.64,0,0,0-.42-.41l-2.46-.77A.62.62,0,0,1,62,28.61l2.1-1.49a.61.61,0,0,0,.26-.52l0-2.58a.63.63,0,0,1,1-.51l2.06,1.54a.64.64,0,0,0,.58.09l2.44-.83A.63.63,0,0,1,71.22,25.11Z"/><path class="cls-4" d="M71.22,25.11l-.83,2.44a.66.66,0,0,0,.09.58L72,30.19a.64.64,0,0,1-.52,1l-2.57,0a.67.67,0,0,0-.53.26l-1.48,2.11a.64.64,0,0,1-1.12-.18l-.76-2.46a.64.64,0,0,0-.42-.41l-2.46-.77A.62.62,0,0,1,62,28.61l2.1-1.49a.61.61,0,0,0,.26-.52l0-2.58a.63.63,0,0,1,1-.51l2.06,1.54a.64.64,0,0,0,.58.09l2.44-.83A.63.63,0,0,1,71.22,25.11Z"/><path class="cls-3" d="M85.71,46.53,84.88,49a.67.67,0,0,0,.09.58l1.55,2.06a.64.64,0,0,1-.52,1l-2.57,0a.61.61,0,0,0-.53.26L81.42,55a.63.63,0,0,1-1.12-.17l-.76-2.46a.67.67,0,0,0-.42-.42l-2.46-.76A.63.63,0,0,1,76.49,50l2.1-1.48a.61.61,0,0,0,.26-.53l0-2.57a.64.64,0,0,1,1-.52l2.06,1.55a.67.67,0,0,0,.58.09l2.44-.83A.63.63,0,0,1,85.71,46.53Z"/><path class="cls-4" d="M85.71,46.53,84.88,49a.67.67,0,0,0,.09.58l1.55,2.06a.64.64,0,0,1-.52,1l-2.57,0a.61.61,0,0,0-.53.26L81.42,55a.63.63,0,0,1-1.12-.17l-.76-2.46a.67.67,0,0,0-.42-.42l-2.46-.76A.63.63,0,0,1,76.49,50l2.1-1.48a.61.61,0,0,0,.26-.53l0-2.57a.64.64,0,0,1,1-.52l2.06,1.55a.67.67,0,0,0,.58.09l2.44-.83A.63.63,0,0,1,85.71,46.53Z"/><path class="cls-2" d="M55.37,36.32a1.95,1.95,0,0,1,3.47,1.24l-.12,12.11A1.94,1.94,0,0,0,60,51.52l10.53,3.77a2,2,0,0,1,0,3.68l-11.3,4a2,2,0,0,0-1.31,1.73l-.66,11.92a2,2,0,0,1-1.48,1.79,1.94,1.94,0,0,1-2.14-.89l-6.1-10.14a2,2,0,0,0-2.33-.83l-11.14,4a2,2,0,0,1-2.23-3l7.05-9.64A2,2,0,0,0,39,55.69L32.76,45.46a2,2,0,0,1,2.32-2.86l10.53,3.77a2,2,0,0,0,2.18-.61Z"/><path class="cls-3" d="M58.8,41.14l0-3.58a1.95,1.95,0,0,0-3.47-1.24l-7.59,9.44a2,2,0,0,1-2.18.61L35.08,42.6a2,2,0,0,0-2.17.61,1.94,1.94,0,0,0-.16,2.25l1.85,3a2.11,2.11,0,0,1,1.94-.41l10.53,3.77a2,2,0,0,0,2.18-.62l7.58-9.44A2.09,2.09,0,0,1,58.8,41.14Z"/><path class="cls-4" d="M55.37,36.32a1.95,1.95,0,0,1,3.47,1.24l-.12,12.11A1.94,1.94,0,0,0,60,51.52l10.53,3.77a2,2,0,0,1,0,3.68l-11.3,4a2,2,0,0,0-1.31,1.73l-.66,11.92a2,2,0,0,1-1.48,1.79,1.94,1.94,0,0,1-2.14-.89l-6.1-10.14a2,2,0,0,0-2.33-.83l-11.14,4a2,2,0,0,1-2.23-3l7.05-9.64A2,2,0,0,0,39,55.69L32.76,45.46a2,2,0,0,1,2.32-2.86l10.53,3.77a2,2,0,0,0,2.18-.61Z"/></svg>