<?xml version="1.0" encoding="utf-8"?>
<!-- Generator: Adobe Illustrator 22.0.1, SVG Export Plug-In . SVG Version: 6.00 Build 0)  -->
<svg version="1.1" id="Layer_1" xmlns="http://www.w3.org/2000/svg" xmlns:xlink="http://www.w3.org/1999/xlink" x="0px" y="0px"
	 viewBox="0 0 1080 2400" style="enable-background:new 0 0 1080 2400;" xml:space="preserve">
<style type="text/css">
	.st0{fill:#DEBDDB;stroke:#DEBDDB;stroke-width:0.75;stroke-miterlimit:10;}
	.st1{fill:#FEF59F;stroke:#FEF59F;stroke-width:0.75;stroke-miterlimit:10;}
	.st2{fill:#C6E0A6;stroke:#C6E0A6;stroke-width:0.75;stroke-miterlimit:10;}
	.st3{fill:none;stroke:#C6E0A6;stroke-width:3;stroke-miterlimit:10;}
	.st4{fill:#EF9A9B;}
	.st5{fill:none;stroke:#89D3E2;stroke-width:3;stroke-miterlimit:10;}
	.st6{fill:none;stroke:#DEBDDB;stroke-width:3;stroke-miterlimit:10;}
	.st7{fill:#EF9A9B;stroke:#EF9A9B;stroke-width:0.75;stroke-miterlimit:10;}
	.st8{fill:#89D3E2;}
</style>
<path class="st0" d="M142.4,776.6c0.1-0.2,0.1-0.3,0-0.5l-2-5.5c-0.1-0.3-0.5-0.5-0.8-0.3c-0.3,0.1-0.5,0.5-0.4,0.8l1.8,4.9
	l-4.8,2.2c-0.2,0.1-0.3,0.2-0.3,0.4c-0.1,0.2-0.1,0.3,0,0.5l1.8,4.9l-4.8,2.2c-0.2,0.1-0.3,0.2-0.3,0.4c-0.1,0.2-0.1,0.3,0,0.5
	l1.8,4.9l-4.8,2.2c-0.3,0.1-0.5,0.5-0.4,0.8c0.1,0.3,0.5,0.5,0.8,0.3l5.4-2.4c0.2-0.1,0.3-0.2,0.3-0.4c0.1-0.2,0.1-0.3,0-0.5
	l-1.8-4.9l4.8-2.2c0.2-0.1,0.3-0.2,0.3-0.4c0.1-0.2,0.1-0.3,0-0.5l-1.8-4.9l4.8-2.2C142.2,776.9,142.3,776.8,142.4,776.6z"/>
<path class="st1" d="M166.5,995.1c-16.9-18.1,8.3-7.5-1.5-26.5c-0.2-0.8-1.2-1.3-2.4-1.3c-1.3,0-2.4,0.8-2.4,1.7
	c0,0.2,0.1,0.4,0.2,0.6c0,0,0,0.1,0.1,0.2c9.5,16.1-16.4,7.3,2.4,27.4c0.1,0.1,0.2,0.2,0.2,0.2c0.4,0.3,1,0.6,1.7,0.6
	c1.2,0,2.2-0.8,2.2-1.7c0-0.3-0.1-0.6-0.3-0.9C166.7,995.3,166.6,995.2,166.5,995.1z"/>
<g>
	<path class="st2" d="M289.4,1333.4c-0.3-0.7,0-0.1,0-0.1c0.1-1.3,0.5-2.4,2.1-2.8c5.1-1.2,9.2-4.2,11.5-8.9
		c0.7-1.5,2.3-1.6,3.2-1.5c0.6,0.1,0.1,0,0.1,0c1.2,0.9,1.6,1.4,0.6,3.3c-3.1,5.8-8.2,9.6-14.5,11.3
		C290.3,1335.2,289.8,1334.3,289.4,1333.4z"/>
	
		<ellipse transform="matrix(0.7902 -0.6128 0.6128 0.7902 -746.093 464.3763)" class="st2" cx="305.2" cy="1321.9" rx="2.4" ry="2.1"/>
	
		<ellipse transform="matrix(0.7902 -0.6128 0.6128 0.7902 -755.536 458.2197)" class="st2" cx="291.5" cy="1332.6" rx="2.4" ry="2"/>
</g>
<circle class="st3" cx="826" cy="663" r="9.3"/>
<polygon class="st4" points="194.9,602.6 178.1,605.2 172,621.2 182.7,634.4 199.5,631.7 205.6,615.8 "/>
<polygon class="st5" points="887.9,899.2 872,893.2 858.8,904 861.5,920.8 877.5,926.8 890.6,916 "/>
<polygon class="st6" points="81.3,1160.6 61.5,1178.8 87.3,1186.9 "/>
<path class="st7" d="M261.5,1541C261.5,1541,261.5,1541,261.5,1541c0,0.1,0.1,0.2,0.1,0.2c0.1,0.1,0.1,0.2,0.2,0.2
	c0.2,0.2,0.5,0.3,0.7,0.3c0.7,0,1.2-0.5,1.2-1.2c0-0.2-0.1-0.4-0.2-0.6c0-0.1-0.1-0.1-0.1-0.2c-5-8.6,16-9.8-5.6,22.3
	c-0.2,0.3-0.3,0.5-0.5,0.7c-0.2,0.2-0.3,0.5-0.3,0.8c0,0.6,0.5,1.2,1.1,1.2c0.2,0,0.4-0.1,0.6-0.2c0,0,0,0,0,0
	c0.1-0.1,0.2-0.2,0.3-0.3c0.2-0.2,0.4-0.5,0.7-1C285,1526,254.5,1527.1,261.5,1541z"/>
<polygon class="st5" points="141.4,1376.4 125.4,1370.4 112.3,1381.1 115,1397.9 130.9,1404 144.1,1393.2 "/>
<polygon class="st5" points="839.2,2099.4 823.3,2093.4 810.1,2104.2 812.9,2121 828.8,2127 842,2116.2 "/>
<polygon class="st5" points="801.6,430.6 785.7,424.6 772.5,435.4 775.3,452.2 791.2,458.2 804.4,447.4 "/>
<path class="st0" d="M841.9,1123.5c-0.1-0.1-0.2-0.3-0.4-0.3l-5.5-2c-0.3-0.1-0.7,0.1-0.8,0.4c-0.1,0.3,0.1,0.7,0.4,0.8l4.9,1.8
	l-1.5,5c0,0.2,0,0.3,0,0.5c0.1,0.1,0.2,0.3,0.4,0.3l4.9,1.8l-1.5,5c0,0.2,0,0.3,0.1,0.5c0.1,0.2,0.2,0.3,0.4,0.3l4.9,1.8l-1.5,5
	c-0.1,0.3,0.1,0.7,0.4,0.8c0.3,0.1,0.7-0.1,0.8-0.4l1.7-5.6c0-0.2,0-0.3,0-0.5c-0.1-0.1-0.2-0.3-0.4-0.3l-4.9-1.8l1.5-5
	c0-0.2,0-0.3,0-0.5c-0.1-0.1-0.2-0.3-0.4-0.3l-4.9-1.8l1.5-5C842,1123.8,842,1123.6,841.9,1123.5z"/>
<path class="st1" d="M821.7,1592.5c-16.9-18.1,8.3-7.5-1.5-26.5c-0.2-0.8-1.2-1.3-2.4-1.3c-1.3,0-2.4,0.8-2.4,1.7
	c0,0.2,0.1,0.4,0.2,0.6c0,0,0,0.1,0.1,0.2c9.5,16.1-16.4,7.3,2.4,27.4c0.1,0.1,0.2,0.2,0.2,0.2c0.4,0.3,1,0.6,1.7,0.6
	c1.2,0,2.2-0.8,2.2-1.7c0-0.3-0.1-0.6-0.3-0.9C821.9,1592.7,821.8,1592.6,821.7,1592.5z"/>
<path class="st1" d="M136.2,2122.7c-16.9-18.1,8.3-7.5-1.5-26.5c-0.2-0.8-1.2-1.3-2.4-1.3c-1.3,0-2.4,0.8-2.4,1.7
	c0,0.2,0.1,0.4,0.2,0.6c0,0,0,0.1,0.1,0.2c9.5,16.1-16.4,7.3,2.4,27.4c0.1,0.1,0.2,0.2,0.2,0.2c0.4,0.3,1,0.6,1.7,0.6
	c1.2,0,2.2-0.8,2.2-1.7c0-0.3-0.1-0.6-0.3-0.9C136.3,2122.9,136.3,2122.8,136.2,2122.7z"/>
<circle class="st3" cx="1059.9" cy="1170.9" r="9.3"/>
<circle class="st3" cx="51.2" cy="1699.3" r="9.3"/>
<path class="st1" d="M138.9,317.1c-16.9-18.1,8.3-7.5-1.5-26.5c-0.2-0.8-1.2-1.3-2.4-1.3c-1.3,0-2.4,0.8-2.4,1.7
	c0,0.2,0.1,0.4,0.2,0.6c0,0,0,0.1,0.1,0.2c9.5,16.1-16.4,7.3,2.4,27.4c0.1,0.1,0.2,0.2,0.2,0.2c0.4,0.3,1,0.6,1.7,0.6
	c1.2,0,2.2-0.8,2.2-1.7c0-0.3-0.1-0.6-0.3-0.9C139,317.3,139,317.2,138.9,317.1z"/>
<polygon class="st8" points="202.3,67.1 195.2,93.2 221.3,86.2 "/>
<path class="st0" d="M249.4,221.6c-0.1-0.1-0.2-0.3-0.4-0.3l-5.5-2c-0.3-0.1-0.7,0.1-0.8,0.4c-0.1,0.3,0.1,0.7,0.4,0.8l4.9,1.8
	l-1.5,5c0,0.2,0,0.3,0,0.5c0.1,0.1,0.2,0.3,0.4,0.3l4.9,1.8l-1.5,5c0,0.2,0,0.3,0.1,0.5c0.1,0.2,0.2,0.3,0.4,0.3l4.9,1.8l-1.5,5
	c-0.1,0.3,0.1,0.7,0.4,0.8c0.3,0.1,0.7-0.1,0.8-0.4l1.7-5.6c0-0.2,0-0.3,0-0.5c-0.1-0.1-0.2-0.3-0.4-0.3l-4.9-1.8l1.5-5
	c0-0.2,0-0.3,0-0.5c-0.1-0.1-0.2-0.3-0.4-0.3l-4.9-1.8l1.5-5C249.5,222,249.5,221.8,249.4,221.6z"/>
<circle class="st3" cx="89.7" cy="138.7" r="9.3"/>
<polygon class="st4" points="944.5,1403.4 936,1388.7 919,1388.7 910.5,1403.4 919,1418.2 936,1418.2 "/>
<polygon class="st8" points="229.4,1187 222.4,1213 248.4,1206.1 "/>
<polygon class="st6" points="106.9,398.8 87.1,417 112.8,425.1 "/>
<polygon class="st6" points="967,757.1 947.2,775.4 973,783.4 "/>
<circle class="st3" cx="1021.5" cy="450.7" r="9.3"/>
<path class="st1" d="M777.4,121.8c-16.9-18.1,8.3-7.5-1.5-26.5c-0.2-0.8-1.2-1.3-2.4-1.3c-1.3,0-2.4,0.8-2.4,1.7
	c0,0.2,0.1,0.4,0.2,0.6c0,0,0,0.1,0.1,0.2c9.5,16.1-16.4,7.3,2.4,27.4c0.1,0.1,0.2,0.2,0.2,0.2c0.4,0.3,1,0.6,1.7,0.6
	c1.2,0,2.2-0.8,2.2-1.7c0-0.3-0.1-0.6-0.3-0.9C777.6,122,777.5,121.9,777.4,121.8z"/>
<g>
	<path class="st2" d="M290.6,420.7C290,420.6,290.5,420.7,290.6,420.7c-0.9-0.7-1.5-1.4-0.9-2.6c2-3.6,2.1-7.6,0-11.1
		c-0.7-1.2,0.1-2.2,0.7-2.6c0.4-0.3,0-0.1,0-0.1c1.3-0.3,1.9-0.3,2.7,1.2c2.4,4.6,2.3,9.5,0,14.1C292.4,421,291.5,420.9,290.6,420.7
		z"/>
	<ellipse class="st2" cx="291.2" cy="405.7" rx="1.9" ry="1.8"/>
	<circle class="st2" cx="291.2" cy="419.1" r="1.8"/>
</g>
<g>
	<path class="st2" d="M955.7,196.4c-0.3-0.7,0-0.1,0-0.1c0.1-1.3,0.5-2.4,2.1-2.8c5.1-1.2,9.2-4.2,11.5-8.9c0.7-1.5,2.3-1.6,3.2-1.5
		c0.6,0.1,0.1,0,0.1,0c1.2,0.9,1.6,1.4,0.6,3.3c-3.1,5.8-8.2,9.6-14.5,11.3C956.7,198.2,956.1,197.3,955.7,196.4z"/>
	
		<ellipse transform="matrix(0.7902 -0.6128 0.6128 0.7902 90.4799 634.1873)" class="st2" cx="971.5" cy="184.9" rx="2.4" ry="2.1"/>
	<ellipse transform="matrix(0.7902 -0.6128 0.6128 0.7902 81.0368 628.0307)" class="st2" cx="957.8" cy="195.7" rx="2.4" ry="2"/>
</g>
<polygon class="st4" points="367.3,93.4 350.5,96.1 344.4,112 355.1,125.2 371.9,122.5 378,106.6 "/>
<polygon class="st8" points="856,255.9 849,281.9 875,275 "/>
<circle class="st3" cx="304.9" cy="2186.8" r="9.3"/>
<path class="st1" d="M1018.6,2187.4c-16.9-18.1,8.3-7.5-1.5-26.5c-0.2-0.8-1.2-1.3-2.4-1.3c-1.3,0-2.4,0.8-2.4,1.7
	c0,0.2,0.1,0.4,0.2,0.6c0,0,0,0.1,0.1,0.2c9.5,16.1-16.4,7.3,2.4,27.4c0.1,0.1,0.2,0.2,0.2,0.2c0.4,0.3,1,0.6,1.7,0.6
	c1.2,0,2.2-0.8,2.2-1.7c0-0.3-0.1-0.6-0.3-0.9C1018.7,2187.6,1018.7,2187.5,1018.6,2187.4z"/>
<polygon class="st8" points="276.2,782.3 283.2,808.4 302.3,789.3 "/>
<circle class="st3" cx="969.3" cy="2009" r="9.3"/>
<path class="st7" d="M912.2,2234.6C912.2,2234.6,912.2,2234.6,912.2,2234.6c0,0.1,0.1,0.2,0.1,0.2c0.1,0.1,0.1,0.2,0.2,0.2
	c0.2,0.2,0.5,0.3,0.7,0.3c0.7,0,1.2-0.5,1.2-1.2c0-0.2-0.1-0.4-0.2-0.6c0-0.1-0.1-0.1-0.1-0.2c-5-8.6,16-9.8-5.6,22.3
	c-0.2,0.3-0.3,0.5-0.5,0.7c-0.2,0.2-0.3,0.5-0.3,0.8c0,0.6,0.5,1.2,1.1,1.2c0.2,0,0.4-0.1,0.6-0.2c0,0,0,0,0,0
	c0.1-0.1,0.2-0.2,0.3-0.3c0.2-0.2,0.4-0.5,0.7-1C935.7,2219.6,905.2,2220.8,912.2,2234.6z"/>
<path class="st7" d="M994.3,580.7C994.3,580.7,994.3,580.7,994.3,580.7c0,0.1,0.1,0.2,0.1,0.2c0.1,0.1,0.1,0.2,0.2,0.2
	c0.2,0.2,0.5,0.3,0.7,0.3c0.7,0,1.2-0.5,1.2-1.2c0-0.2-0.1-0.4-0.2-0.6c0-0.1-0.1-0.1-0.1-0.2c-5-8.6,16-9.8-5.6,22.3
	c-0.2,0.3-0.3,0.5-0.5,0.7c-0.2,0.2-0.3,0.5-0.3,0.8c0,0.6,0.5,1.2,1.1,1.2c0.2,0,0.4-0.1,0.6-0.2c0,0,0,0,0,0
	c0.1-0.1,0.2-0.2,0.3-0.3c0.2-0.2,0.4-0.5,0.7-1C1017.8,565.7,987.3,566.8,994.3,580.7z"/>
<g>
	<path class="st2" d="M1003.6,1648.9C1003,1648.8,1003.5,1648.8,1003.6,1648.9c-0.9-0.7-1.5-1.4-0.9-2.6c2-3.6,2.1-7.6,0-11.1
		c-0.7-1.2,0.1-2.2,0.7-2.6c0.4-0.3,0-0.1,0-0.1c1.3-0.3,1.9-0.3,2.7,1.2c2.4,4.6,2.3,9.5,0,14.1
		C1005.4,1649.2,1004.4,1649,1003.6,1648.9z"/>
	<ellipse class="st2" cx="1004.2" cy="1633.9" rx="1.9" ry="1.8"/>
	<circle class="st2" cx="1004.2" cy="1647.3" r="1.8"/>
</g>
<g>
	<path class="st2" d="M972.3,2344.8C971.6,2344.7,972.2,2344.8,972.3,2344.8c-0.9-0.7-1.5-1.4-0.9-2.6c2-3.6,2.1-7.6,0-11.1
		c-0.7-1.2,0.1-2.2,0.7-2.6c0.4-0.3,0-0.1,0-0.1c1.3-0.3,1.9-0.3,2.7,1.2c2.4,4.6,2.3,9.5,0,14.1
		C974.1,2345.1,973.1,2345,972.3,2344.8z"/>
	<ellipse class="st2" cx="972.9" cy="2329.9" rx="1.9" ry="1.8"/>
	<circle class="st2" cx="972.9" cy="2343.2" r="1.8"/>
</g>
<g>
	<path class="st2" d="M215.4,1793.2c-0.3-0.7,0-0.1,0-0.1c0.1-1.3,0.5-2.4,2.1-2.8c5.1-1.2,9.2-4.2,11.5-8.9
		c0.7-1.5,2.3-1.6,3.2-1.5c0.6,0.1,0.1,0,0.1,0c1.2,0.9,1.6,1.4,0.6,3.3c-3.1,5.8-8.2,9.6-14.5,11.3
		C216.3,1795,215.8,1794.1,215.4,1793.2z"/>
	
		<ellipse transform="matrix(0.7902 -0.6128 0.6128 0.7902 -1043.4208 515.4502)" class="st2" cx="231.2" cy="1781.7" rx="2.4" ry="2.1"/>
	
		<ellipse transform="matrix(0.7902 -0.6128 0.6128 0.7902 -1052.8636 509.2935)" class="st2" cx="217.4" cy="1792.4" rx="2.4" ry="2"/>
</g>
<polygon class="st6" points="110.2,1873.9 90.4,1892.1 116.1,1900.2 "/>
<path class="st0" d="M927.4,1826.4c0.1-0.2,0.1-0.3,0-0.5l-2-5.5c-0.1-0.3-0.5-0.5-0.8-0.3c-0.3,0.1-0.5,0.5-0.4,0.8l1.8,4.9
	l-4.8,2.2c-0.2,0.1-0.3,0.2-0.3,0.4c-0.1,0.2-0.1,0.3,0,0.5l1.8,4.9l-4.8,2.2c-0.2,0.1-0.3,0.2-0.3,0.4c-0.1,0.2-0.1,0.3,0,0.5
	l1.8,4.9l-4.8,2.2c-0.3,0.1-0.5,0.5-0.4,0.8s0.5,0.5,0.8,0.3l5.4-2.4c0.2-0.1,0.3-0.2,0.3-0.4c0.1-0.2,0.1-0.3,0-0.5l-1.8-4.9
	l4.8-2.2c0.2-0.1,0.3-0.2,0.3-0.4c0.1-0.2,0.1-0.3,0-0.5l-1.8-4.9l4.8-2.2C927.2,1826.7,927.4,1826.5,927.4,1826.4z"/>
<polygon class="st8" points="149.2,2257 142.2,2283 168.2,2276.1 "/>
<polygon class="st4" points="251.5,1983.8 234.7,1986.5 228.6,2002.4 239.3,2015.6 256.1,2013 262.2,1997 "/>
</svg>
