<svg xmlns="http://www.w3.org/2000/svg" viewBox="0 0 52 82.15"><defs><style>.cls-1{fill:#f0f2ff;}.cls-2,.cls-6{fill:#fff;}.cls-2,.cls-4{stroke:#e5585a;stroke-linecap:round;stroke-linejoin:round;}.cls-3{fill:#ef9a9b;}.cls-4{fill:none;}.cls-5{fill:#e5585a;}</style></defs><title>Asset 4</title><g id="Layer_2" data-name="Layer 2"><g id="Duotone"><g id="Icons"><g id="Scene"><ellipse class="cls-1" cx="26" cy="80.43" rx="12.65" ry="1.73"/><path class="cls-2" d="M34.05,27a1.42,1.42,0,0,0-1.15-1.38v-.92a6.9,6.9,0,0,0-13.8,0v.92a1.41,1.41,0,0,0,.14,2.79,6.91,6.91,0,0,0,13.52,0A1.42,1.42,0,0,0,34.05,27Z"/><path class="cls-3" d="M23.12,27.82a.86.86,0,1,1-.86-.87A.86.86,0,0,1,23.12,27.82Z"/><path class="cls-3" d="M30.6,27.82a.87.87,0,1,1-.86-.87A.87.87,0,0,1,30.6,27.82Z"/><path class="cls-4" d="M24.27,29.88a3.1,3.1,0,0,0,3.45,0"/><path class="cls-5" d="M23.41,24.7a.87.87,0,1,0,.86.86.87.87,0,0,0-.86-.86Z"/><path class="cls-5" d="M28.59,24.7a.87.87,0,1,0,.86.86.87.87,0,0,0-.86-.86Z"/><path class="cls-6" d="M25.78,15.22a7.81,7.81,0,0,0-7.36,7.91V24.4a.59.59,0,0,0,.8.54c1.11-.46,3-1.52,3-3.53,2.74,2.67,7.3,2.51,10.46,1.67a1.17,1.17,0,0,0,.86-1.28A7.6,7.6,0,0,0,25.78,15.22Z"/><path class="cls-4" d="M25.78,15.22a7.81,7.81,0,0,0-7.36,7.91V24.4a.59.59,0,0,0,.8.54c1.11-.46,3-1.52,3-3.53,2.74,2.67,7.3,2.51,10.46,1.67a1.17,1.17,0,0,0,.86-1.28A7.6,7.6,0,0,0,25.78,15.22Z"/><path class="cls-6" d="M26,36.15c-5.93.12-11.5,4.48-11.5,12.08h4v8.62h15V48.23h4C37.5,40.63,31.93,36.27,26,36.15Z"/><path class="cls-3" d="M18.52,56.85V78.7H24l.63-14.26a1.33,1.33,0,1,1,2.66,0L28,78.7h5.51V56.85Z"/><path class="cls-4" d="M18.52,56.85V78.7H24l.63-14.26a1.33,1.33,0,1,1,2.66,0L28,78.7h5.51V56.85Z"/><path class="cls-2" d="M35.49,62.6h0a2,2,0,0,1-2-2V48.23h4V60.59A2,2,0,0,1,35.49,62.6Z"/><path class="cls-2" d="M16.51,62.6h0a2,2,0,0,1-2-2V48.23h4V60.59A2,2,0,0,1,16.51,62.6Z"/><path class="cls-4" d="M26,36.15c-5.93.12-11.5,4.48-11.5,12.08h4v8.62h15V48.23h4C37.5,40.63,31.93,36.27,26,36.15Z"/><line class="cls-4" x1="33.47" y1="48.23" x2="33.47" y2="44.43"/><line class="cls-4" x1="18.52" y1="48.23" x2="18.52" y2="44.43"/><path class="cls-2" d="M22.55,36.72h0a3.46,3.46,0,0,0,6.9,0h0A12.52,12.52,0,0,0,26,36.15,12.52,12.52,0,0,0,22.55,36.72Z"/><path class="cls-2" d="M18.55,79.85a1.15,1.15,0,0,1-1-1.67,3.45,3.45,0,0,1,3-1.78h.58a3.45,3.45,0,0,1,3,1.78,1.15,1.15,0,0,1-1,1.67Z"/><path class="cls-2" d="M28.89,79.85a1.15,1.15,0,0,1-1-1.67,3.45,3.45,0,0,1,3-1.78h.58a3.45,3.45,0,0,1,3,1.78,1.15,1.15,0,0,1-1,1.67Z"/><path class="cls-6" d="M16.23,8.49a.62.62,0,0,0-.17-.64.63.63,0,0,0-.64-.14L13,8.58a.61.61,0,0,1-.57-.08L10.5,7.11a.63.63,0,0,0-.66,0,.61.61,0,0,0-.33.57L9.58,10a.64.64,0,0,1-.26.53L7.26,12.06a.61.61,0,0,0-.25.61.63.63,0,0,0,.44.5l2.46.71a.62.62,0,0,1,.42.41l.81,2.43a.63.63,0,0,0,.51.43.62.62,0,0,0,.6-.27l1.39-2a.64.64,0,0,1,.52-.28h2.47a.62.62,0,0,0,.49-1l-1.57-2a.59.59,0,0,1-.1-.57Z"/><path class="cls-4" d="M16.23,8.49a.62.62,0,0,0-.17-.64.63.63,0,0,0-.64-.14L13,8.58a.61.61,0,0,1-.57-.08L10.5,7.11a.63.63,0,0,0-.66,0,.61.61,0,0,0-.33.57L9.58,10a.64.64,0,0,1-.26.53L7.26,12.06a.61.61,0,0,0-.25.61.63.63,0,0,0,.44.5l2.46.71a.62.62,0,0,1,.42.41l.81,2.43a.63.63,0,0,0,.51.43.62.62,0,0,0,.6-.27l1.39-2a.64.64,0,0,1,.52-.28h2.47a.62.62,0,0,0,.49-1l-1.57-2a.59.59,0,0,1-.1-.57Z"/><path class="cls-6" d="M5.42,18.85A.49.49,0,0,0,5,18.5a.51.51,0,0,0-.5.19L3.32,20.32a.46.46,0,0,1-.42.2L1,20.45a.5.5,0,0,0-.43.79l1.09,1.54a.48.48,0,0,1,.06.46L1,25.15a.5.5,0,0,0,.1.52.49.49,0,0,0,.51.13l2-.6a.5.5,0,0,1,.46.08l1.6,1.27a.49.49,0,0,0,.52.05.48.48,0,0,0,.29-.44l0-2a.51.51,0,0,1,.23-.41L8.35,22.7a.5.5,0,0,0-.12-.89L6.3,21.15A.48.48,0,0,1,6,20.82Z"/><path class="cls-4" d="M5.42,18.85A.49.49,0,0,0,5,18.5a.51.51,0,0,0-.5.19L3.32,20.32a.46.46,0,0,1-.42.2L1,20.45a.5.5,0,0,0-.43.79l1.09,1.54a.48.48,0,0,1,.06.46L1,25.15a.5.5,0,0,0,.1.52.49.49,0,0,0,.51.13l2-.6a.5.5,0,0,1,.46.08l1.6,1.27a.49.49,0,0,0,.52.05.48.48,0,0,0,.29-.44l0-2a.51.51,0,0,1,.23-.41L8.35,22.7a.5.5,0,0,0-.12-.89L6.3,21.15A.48.48,0,0,1,6,20.82Z"/><path class="cls-6" d="M35.77,8.49a.62.62,0,0,1,.17-.64.63.63,0,0,1,.64-.14L39,8.58a.61.61,0,0,0,.57-.08L41.5,7.11a.63.63,0,0,1,.66,0,.61.61,0,0,1,.33.57L42.42,10a.61.61,0,0,0,.26.53l2.06,1.52a.61.61,0,0,1,.25.61.63.63,0,0,1-.44.5l-2.46.71a.62.62,0,0,0-.42.41l-.81,2.43a.63.63,0,0,1-.51.43.61.61,0,0,1-.6-.27l-1.39-2a.64.64,0,0,0-.52-.28H35.37a.62.62,0,0,1-.49-1l1.57-2a.59.59,0,0,0,.1-.57Z"/><path class="cls-4" d="M35.77,8.49a.62.62,0,0,1,.17-.64.63.63,0,0,1,.64-.14L39,8.58a.61.61,0,0,0,.57-.08L41.5,7.11a.63.63,0,0,1,.66,0,.61.61,0,0,1,.33.57L42.42,10a.61.61,0,0,0,.26.53l2.06,1.52a.61.61,0,0,1,.25.61.63.63,0,0,1-.44.5l-2.46.71a.62.62,0,0,0-.42.41l-.81,2.43a.63.63,0,0,1-.51.43.61.61,0,0,1-.6-.27l-1.39-2a.64.64,0,0,0-.52-.28H35.37a.62.62,0,0,1-.49-1l1.57-2a.59.59,0,0,0,.1-.57Z"/><path class="cls-6" d="M46.58,18.85A.49.49,0,0,1,47,18.5a.51.51,0,0,1,.5.19l1.22,1.63a.46.46,0,0,0,.42.2L51,20.45a.5.5,0,0,1,.43.79l-1.09,1.54a.48.48,0,0,0-.06.46l.7,1.91a.5.5,0,0,1-.1.52.49.49,0,0,1-.51.13l-2-.6a.5.5,0,0,0-.46.08l-1.6,1.27a.49.49,0,0,1-.52.05.48.48,0,0,1-.29-.44l0-2a.51.51,0,0,0-.23-.41L43.65,22.7a.5.5,0,0,1,.12-.89l1.93-.66a.48.48,0,0,0,.32-.33Z"/><path class="cls-4" d="M46.58,18.85A.49.49,0,0,1,47,18.5a.51.51,0,0,1,.5.19l1.22,1.63a.46.46,0,0,0,.42.2L51,20.45a.5.5,0,0,1,.43.79l-1.09,1.54a.48.48,0,0,0-.06.46l.7,1.91a.5.5,0,0,1-.1.52.49.49,0,0,1-.51.13l-2-.6a.5.5,0,0,0-.46.08l-1.6,1.27a.49.49,0,0,1-.52.05.48.48,0,0,1-.29-.44l0-2a.51.51,0,0,0-.23-.41L43.65,22.7a.5.5,0,0,1,.12-.89l1.93-.66a.48.48,0,0,0,.32-.33Z"/><path class="cls-6" d="M32.34,5.93a.8.8,0,0,0-.44-1.36L28.66,4.1a.79.79,0,0,1-.6-.44L26.72,1a.8.8,0,0,0-1.44,0L23.94,3.66a.79.79,0,0,1-.6.44l-3.24.47a.8.8,0,0,0-.44,1.36L22,8.22a.76.76,0,0,1,.23.7l-.55,3.23a.8.8,0,0,0,1.16.84l2.79-1.46a.75.75,0,0,1,.74,0L29.16,13a.8.8,0,0,0,1.16-.84l-.55-3.23a.76.76,0,0,1,.23-.7Z"/><path class="cls-4" d="M32.34,5.93a.8.8,0,0,0-.44-1.36L28.66,4.1a.79.79,0,0,1-.6-.44L26.72,1a.8.8,0,0,0-1.44,0L23.94,3.66a.79.79,0,0,1-.6.44l-3.24.47a.8.8,0,0,0-.44,1.36L22,8.22a.76.76,0,0,1,.23.7l-.55,3.23a.8.8,0,0,0,1.16.84l2.79-1.46a.75.75,0,0,1,.74,0L29.16,13a.8.8,0,0,0,1.16-.84l-.55-3.23a.76.76,0,0,1,.23-.7Z"/></g></g></g></g></svg>