<svg xmlns="http://www.w3.org/2000/svg" viewBox="0 0 74.5 89"><defs><style>.cls-1,.cls-5{fill:#fff;}.cls-2{fill:none;}.cls-2,.cls-4,.cls-5,.cls-8{stroke:#4cbcd3;stroke-linejoin:round;}.cls-2,.cls-4,.cls-5{stroke-linecap:round;}.cls-3,.cls-4,.cls-8{fill:#89d3ff;}.cls-6{fill:#4cbcd3;}.cls-7{fill:#f0f2ff;}</style></defs><title>Asset 1</title><g id="Layer_2" data-name="Layer 2"><g id="Duotone"><g id="Icons"><g id="Scene"><path class="cls-1" d="M22,51a6,6,0,0,0,6-6V33A12,12,0,0,0,15.2,21,12.28,12.28,0,0,0,4,33.41V45a6,6,0,0,0,6,6Z"/><path class="cls-2" d="M22,51a6,6,0,0,0,6-6V33A12,12,0,0,0,15.2,21,12.28,12.28,0,0,0,4,33.41V45a6,6,0,0,0,6,6Z"/><path class="cls-3" d="M31.5,69.5v-4a15.5,15.5,0,0,0-31,0v4Z"/><path class="cls-2" d="M31.5,69.5v-4a15.5,15.5,0,0,0-31,0v4Z"/><path class="cls-4" d="M23,52.82A3.82,3.82,0,0,0,19.17,49H12.83A3.82,3.82,0,0,0,9,52.82a3.88,3.88,0,0,0,.23,1.31L11,59l5-3,5,3,1.77-4.87A3.88,3.88,0,0,0,23,52.82Z"/><line class="cls-2" x1="16" y1="56" x2="16" y2="69.5"/><polygon class="cls-1" points="19.5 52.5 16 56 12.5 52.5 12.5 47 19.5 47 19.5 52.5"/><polygon class="cls-2" points="19.5 52.5 16 56 12.5 52.5 12.5 47 19.5 47 19.5 52.5"/><line class="cls-2" x1="6.5" y1="64" x2="6.5" y2="69.5"/><line class="cls-2" x1="25.5" y1="64" x2="25.5" y2="69.5"/><path class="cls-5" d="M26,36.5V34c0-.24,0-.46,0-.69a11,11,0,0,1-13.54-2.93A5.44,5.44,0,0,1,6,34.9v1.6a2,2,0,0,0,0,4h.12a10,10,0,0,0,19.76,0H26a2,2,0,0,0,0-4Z"/><path class="cls-2" d="M13,43.3a4.38,4.38,0,0,0,6,0"/><path class="cls-2" d="M21.5,37.5a1.63,1.63,0,0,0-3,0"/><path class="cls-2" d="M13.51,37.5a1.74,1.74,0,0,0-1.51-1,1.72,1.72,0,0,0-1.5,1"/><circle class="cls-3" cx="10.25" cy="40.75" r="1.25"/><circle class="cls-3" cx="21.75" cy="40.75" r="1.25"/><path class="cls-5" d="M69,37.5H59l-5.5,7-5.5-7H38a5,5,0,0,1-5-5V5.5a5,5,0,0,1,5-5H69a5,5,0,0,1,5,5v27A5,5,0,0,1,69,37.5Z"/><rect class="cls-3" x="37" y="4.5" width="33" height="29" rx="2" ry="2"/><path class="cls-1" d="M57,4.5H39a2,2,0,0,0-2,2v18Z"/><path class="cls-5" d="M62.61,20a1.55,1.55,0,0,0-1.27-1.51v-1a7.59,7.59,0,0,0-15.18,0v1a1.54,1.54,0,0,0,.16,3.06,7.59,7.59,0,0,0,14.86,0A1.56,1.56,0,0,0,62.61,20Z"/><path class="cls-6" d="M50.9,17.45a1,1,0,0,0,0,1.9.95.95,0,1,0,0-1.9Z"/><path class="cls-6" d="M56.6,17.45a.95.95,0,1,0,.95.95.95.95,0,0,0-.95-.95Z"/><circle class="cls-3" cx="49.64" cy="20.93" r="0.95"/><circle class="cls-3" cx="57.86" cy="20.93" r="0.95"/><path class="cls-2" d="M51.85,23.21a3.45,3.45,0,0,0,3.8,0"/><path class="cls-1" d="M62,15.55a8.23,8.23,0,0,0-16.46,0v2.54A6.54,6.54,0,0,0,50,14.29C53.5,16.68,58.18,16.19,62,15.55Z"/><path class="cls-2" d="M62,15.55a8.23,8.23,0,0,0-16.46,0v2.54A6.54,6.54,0,0,0,50,14.29C53.5,16.68,58.18,16.19,62,15.55Z"/><path class="cls-2" d="M48.69,13A4.09,4.09,0,0,0,50,14.29"/><rect class="cls-2" x="37" y="4.5" width="33" height="29" rx="2" ry="2"/><path class="cls-5" d="M62.62,33.5a13.3,13.3,0,0,0-17.74,0Z"/><circle class="cls-5" cx="66" cy="8.5" r="2"/><ellipse class="cls-7" cx="33.98" cy="87.5" rx="15.5" ry="1.5"/><rect class="cls-1" x="9" y="47.5" width="50" height="32.58" rx="2" ry="2"/><path class="cls-5" d="M42.94,84.08a3,3,0,0,1-.36,2.16A2,2,0,0,1,41,87H27a2,2,0,0,1-1.54-.76,3,3,0,0,1-.36-2.16Z"/><rect class="cls-2" x="9" y="47.5" width="50" height="32.58" rx="2" ry="2"/><path class="cls-5" d="M41.3,87H26.65c1.84-4.88,2.45-18.92,2.45-18.92h9.76S39.47,82.12,41.3,87Z"/><line class="cls-2" x1="13" y1="76.08" x2="13" y2="78.08"/><line class="cls-2" x1="15" y1="76.08" x2="15" y2="78.08"/><line class="cls-2" x1="17" y1="76.08" x2="17" y2="78.08"/><line class="cls-2" x1="19" y1="76.08" x2="19" y2="78.08"/><path class="cls-8" d="M35.31,59.69A1.34,1.34,0,0,1,36,58.55a1.41,1.41,0,0,0-1.1-.6c-.47,0-.91.28-1.15.28s-.6-.27-1-.26a1.46,1.46,0,0,0-1.24.75,3.13,3.13,0,0,0,.38,3c.25.36.56.77,1,.76s.52-.25,1-.25.59.25,1,.24.67-.37.92-.73a3,3,0,0,0,.41-.86A1.31,1.31,0,0,1,35.31,59.69Z"/><line class="cls-2" x1="34.28" y1="56.4" x2="34.83" y2="55.85"/><line class="cls-2" x1="13" y1="50.5" x2="55" y2="50.5"/></g></g></g></g></svg>