<?xml version="1.0" encoding="utf-8"?>
<svg version="1.1" id="Layer_1" xmlns="http://www.w3.org/2000/svg" xmlns:xlink="http://www.w3.org/1999/xlink" x="0px" y="0px"
	 viewBox="0 0 3275.7 1183.2" style="enable-background:new 0 0 3275.7 1183.2;" xml:space="preserve">
<style type="text/css">
	.st0{opacity:0.4;}
	.st1{fill:url(#SVGID_1_);}
	.st2{fill:url(#SVGID_2_);}
	.st3{fill:url(#SVGID_3_);}
</style>
<g class="st0">
	
		<linearGradient id="SVGID_1_" gradientUnits="userSpaceOnUse" x1="1037.1001" y1="151.3741" x2="1037.1001" y2="1186" gradientTransform="matrix(1 0 0 -1 0 1186)">
		<stop  offset="0" style="stop-color:#FFFFFF;stop-opacity:0"/>
		<stop  offset="1" style="stop-color:#FFFFFF"/>
	</linearGradient>
	<path class="st1" d="M0,724.7c11.2,12.3,22.9,24.6,35.3,36.7c268.3,262.5,740.2,366.2,1265.9,175
		c371.1-134.9,537.3-272.3,773-577.4c-129.1-109.7-229.1-212.9-342.7-359H0V724.7z"/>
	
		<linearGradient id="SVGID_2_" gradientUnits="userSpaceOnUse" x1="2674.9502" y1="402.0004" x2="2674.9502" y2="1186" gradientTransform="matrix(1 0 0 -1 0 1186)">
		<stop  offset="0" style="stop-color:#FFFFFF;stop-opacity:0"/>
		<stop  offset="1" style="stop-color:#FFFFFF"/>
	</linearGradient>
	<path class="st2" d="M2234.6,143c-58.3,80.6-110.8,151.8-160.4,216c57.2,48.6,120,98.4,192.4,153.8
		c197.6,151.3,712.3,393.3,1009.1,198.6V0h-917.3C2314.5,42.4,2272.9,90,2234.6,143z"/>
	
		<linearGradient id="SVGID_3_" gradientUnits="userSpaceOnUse" x1="1637.85" y1="2.8" x2="1637.85" y2="827" gradientTransform="matrix(1 0 0 -1 0 1186)">
		<stop  offset="0" style="stop-color:#FFFFFF;stop-opacity:0"/>
		<stop  offset="1" style="stop-color:#FFFFFF"/>
	</linearGradient>
	<path class="st3" d="M2266.6,512.8c-72.4-55.4-135.2-105.2-192.4-153.8c-235.7,305.1-401.9,442.4-773,577.4
		c-525.7,191.2-997.6,87.5-1265.9-175C22.9,749.3,11.2,737,0,724.7v458.5h3275.7V711.4C2978.9,906.1,2464.2,664.1,2266.6,512.8z"/>
</g>
</svg>
