<svg xmlns="http://www.w3.org/2000/svg" viewBox="0 0 77 62"><defs><style>.cls-1,.cls-4{fill:#d6daff;}.cls-2,.cls-5{fill:#fff;}.cls-3{fill:none;}.cls-3,.cls-4,.cls-5{stroke:#4550e5;stroke-linecap:round;stroke-linejoin:round;}.cls-6{fill:#4550e5;}</style></defs><title>Asset 1</title><g id="Layer_2" data-name="Layer 2"><g id="Duotone"><g id="Icons"><path class="cls-1" d="M62.5,53.5H3.5a3,3,0,0,1-3-3V9.5h65v41A3,3,0,0,1,62.5,53.5Z"/><path class="cls-2" d="M8.5,53.5l44-44H.5v41a3,3,0,0,0,3,3Z"/><path class="cls-2" d="M39,41.5a6,6,0,0,0,6-6v-12a12,12,0,0,0-12-12c-.28,0-.55,0-.83,0A12.29,12.29,0,0,0,21,24V35.5a6,6,0,0,0,6,6H39Z"/><path class="cls-3" d="M39,41.5a6,6,0,0,0,6-6v-12a12,12,0,0,0-12-12c-.28,0-.55,0-.83,0A12.29,12.29,0,0,0,21,24V35.5a6,6,0,0,0,6,6H39Z"/><path class="cls-1" d="M48.3,53.5a15.5,15.5,0,0,0-30.6,0Z"/><path class="cls-3" d="M48.3,53.5a15.5,15.5,0,0,0-30.6,0Z"/><path class="cls-4" d="M40,43.32a3.82,3.82,0,0,0-3.82-3.82H29.83A3.82,3.82,0,0,0,26,43.31h0a3.88,3.88,0,0,0,.23,1.31L28,49.5l5-3,5,3,1.77-4.87A3.88,3.88,0,0,0,40,43.32Z"/><line class="cls-3" x1="33" y1="46.5" x2="33" y2="53.5"/><polygon class="cls-2" points="36.5 43 33 46.5 29.5 43 29.5 37.5 36.5 37.5 36.5 43"/><polygon class="cls-3" points="36.5 43 33 46.5 29.5 43 29.5 37.5 36.5 37.5 36.5 43"/><path class="cls-5" d="M43,27V23.8A10.87,10.87,0,0,1,38,25a11,11,0,0,1-8.58-4.12,5.44,5.44,0,0,1-6.2,4.56l-.22,0V27a2,2,0,0,0,0,4h.12a10,10,0,0,0,19.76,0H43a2,2,0,0,0,0-4Z"/><path class="cls-3" d="M30,33.79a4.37,4.37,0,0,0,6,0"/><path class="cls-3" d="M38.5,28a1.63,1.63,0,0,0-2.14-.86,1.61,1.61,0,0,0-.86.86"/><path class="cls-3" d="M30.51,28a1.63,1.63,0,0,0-2.14-.86,1.61,1.61,0,0,0-.86.86"/><circle class="cls-1" cx="27.25" cy="31.25" r="1.25"/><circle class="cls-1" cx="38.75" cy="31.25" r="1.25"/><path class="cls-5" d="M62.5.5H3.5a3,3,0,0,0-3,3v6h65v-6A3,3,0,0,0,62.5.5Z"/><circle class="cls-4" cx="5" cy="5" r="1.5"/><circle class="cls-4" cx="10" cy="5" r="1.5"/><circle class="cls-4" cx="15" cy="5" r="1.5"/><path class="cls-3" d="M62.5,53.5H3.5a3,3,0,0,1-3-3V9.5h65v41A3,3,0,0,1,62.5,53.5Z"/><circle class="cls-5" cx="59.5" cy="15.5" r="3"/><rect class="cls-5" x="48.5" y="38.5" width="28" height="23" rx="1" ry="1"/><path class="cls-4" d="M69.85,61.5a10.5,10.5,0,0,0-14.7,0Z"/><path class="cls-5" d="M69.5,50.5a1.22,1.22,0,0,0-1-1.2v-.8a6,6,0,0,0-12,0v.8a1.22,1.22,0,0,0,.13,2.42,6,6,0,0,0,11.74,0A1.24,1.24,0,0,0,69.5,50.5Z"/><path class="cls-6" d="M60.25,48.5a.75.75,0,1,0,.75.75A.76.76,0,0,0,60.25,48.5Z"/><path class="cls-6" d="M64.75,48.5a.75.75,0,1,0,.75.75A.76.76,0,0,0,64.75,48.5Z"/><circle class="cls-1" cx="59.25" cy="51.25" r="0.75"/><circle class="cls-1" cx="65.75" cy="51.25" r="0.75"/><path class="cls-3" d="M61,53a2.69,2.69,0,0,0,3,0"/><path class="cls-2" d="M69,47a6.5,6.5,0,0,0-13,0v2a5.14,5.14,0,0,0,3.5-3C62.3,47.88,66,47.5,69,47Z"/><path class="cls-3" d="M69,47a6.5,6.5,0,0,0-13,0v2a5.14,5.14,0,0,0,3.5-3C62.3,47.88,66,47.5,69,47Z"/><path class="cls-3" d="M58.5,45a3.4,3.4,0,0,0,1,1"/><rect class="cls-3" x="48.5" y="38.5" width="28" height="23" rx="1" ry="1"/></g></g></g></svg>