<svg id="Duotone" xmlns="http://www.w3.org/2000/svg" viewBox="0 0 100 112"><defs><style>.cls-1{fill:#f0f2ff;}.cls-2,.cls-5{fill:#d6daff;}.cls-3,.cls-6{fill:#fff;}.cls-4{fill:none;}.cls-4,.cls-5,.cls-6{stroke:#4550e5;stroke-linecap:round;stroke-linejoin:round;}.cls-7{fill:#4550e5;}</style></defs><title>08- video-call-4</title><g id="Icons"><path class="cls-2" d="M74.5,80.55h-59a3,3,0,0,1-3-3v-41h65v41A3,3,0,0,1,74.5,80.55Z"/><path class="cls-3" d="M20.5,80.55l44-44h-52v41a3,3,0,0,0,3,3Z"/><path class="cls-3" d="M51,68.55a6,6,0,0,0,6-6v-12a12,12,0,0,0-12.8-12A12.28,12.28,0,0,0,33,51V62.55a6,6,0,0,0,6,6Z"/><path class="cls-4" d="M51,68.55a6,6,0,0,0,6-6v-12a12,12,0,0,0-12.8-12A12.28,12.28,0,0,0,33,51V62.55a6,6,0,0,0,6,6Z"/><path class="cls-2" d="M60.3,80.55a15.5,15.5,0,0,0-30.6,0Z"/><path class="cls-4" d="M60.3,80.55a15.5,15.5,0,0,0-30.6,0Z"/><path class="cls-5" d="M52,70.37a3.82,3.82,0,0,0-3.83-3.82H41.83A3.82,3.82,0,0,0,38,70.37a3.88,3.88,0,0,0,.23,1.31L40,76.55l5-3,5,3,1.77-4.87A3.88,3.88,0,0,0,52,70.37Z"/><line class="cls-4" x1="45" y1="73.55" x2="45" y2="80.55"/><polygon class="cls-3" points="48.5 70.05 45 73.55 41.5 70.05 41.5 64.55 48.5 64.55 48.5 70.05"/><polygon class="cls-4" points="48.5 70.05 45 73.55 41.5 70.05 41.5 64.55 48.5 64.55 48.5 70.05"/><path class="cls-6" d="M55,54.05v-2.5c0-.24,0-.47,0-.7a10.88,10.88,0,0,1-5,1.2,11,11,0,0,1-8.58-4.12A5.44,5.44,0,0,1,35,52.45v1.6a2,2,0,0,0,0,4l.12,0a10,10,0,0,0,19.76,0l.12,0a2,2,0,0,0,0-4Z"/><path class="cls-4" d="M42,60.84a4.36,4.36,0,0,0,6,0"/><path class="cls-4" d="M50.5,55.05a1.63,1.63,0,0,0-3,0"/><path class="cls-4" d="M42.51,55.05a1.63,1.63,0,0,0-3,0"/><circle class="cls-2" cx="39.25" cy="58.3" r="1.25"/><circle class="cls-2" cx="50.75" cy="58.3" r="1.25"/><path class="cls-6" d="M74.5,27.55h-59a3,3,0,0,0-3,3v6h65v-6A3,3,0,0,0,74.5,27.55Z"/><circle class="cls-5" cx="17" cy="32.05" r="1.5"/><circle class="cls-5" cx="22" cy="32.05" r="1.5"/><circle class="cls-5" cx="27" cy="32.05" r="1.5"/><path class="cls-4" d="M74.5,80.55h-59a3,3,0,0,1-3-3v-41h65v41A3,3,0,0,1,74.5,80.55Z"/><circle class="cls-6" cx="71.5" cy="42.55" r="3"/><rect class="cls-6" x="60.5" y="65.55" width="28" height="23" rx="1" ry="1"/><path class="cls-5" d="M81.85,88.55a10.5,10.5,0,0,0-14.7,0Z"/><path class="cls-6" d="M81.5,77.55a1.23,1.23,0,0,0-1-1.2v-.8a6,6,0,0,0-12,0v.8a1.22,1.22,0,0,0,.13,2.42,6,6,0,0,0,11.74,0A1.24,1.24,0,0,0,81.5,77.55Z"/><path class="cls-7" d="M72.25,75.55a.75.75,0,1,0,.75.75.75.75,0,0,0-.75-.75Z"/><path class="cls-7" d="M76.75,75.55a.75.75,0,1,0,.75.75.75.75,0,0,0-.75-.75Z"/><circle class="cls-2" cx="71.25" cy="78.3" r="0.75"/><circle class="cls-2" cx="77.75" cy="78.3" r="0.75"/><path class="cls-4" d="M73,80.09a2.69,2.69,0,0,0,3,0"/><path class="cls-3" d="M81,74.05a6.5,6.5,0,0,0-13,0v2a5.15,5.15,0,0,0,3.5-3C74.3,74.93,78,74.55,81,74.05Z"/><path class="cls-4" d="M81,74.05a6.5,6.5,0,0,0-13,0v2a5.15,5.15,0,0,0,3.5-3C74.3,74.93,78,74.55,81,74.05Z"/><path class="cls-4" d="M70.5,72.05a3.32,3.32,0,0,0,1,1"/><rect class="cls-4" x="60.5" y="65.55" width="28" height="23" rx="1" ry="1"/></g></svg>