<?xml version="1.0" encoding="utf-8"?>
<!-- Generator: Adobe Illustrator 17.0.0, SVG Export Plug-In . SVG Version: 6.00 Build 0)  -->
<!DOCTYPE svg PUBLIC "-//W3C//DTD SVG 1.1//EN" "http://www.w3.org/Graphics/SVG/1.1/DTD/svg11.dtd">
<svg version="1.1" id="Layer_1" xmlns="http://www.w3.org/2000/svg" xmlns:xlink="http://www.w3.org/1999/xlink" x="0px" y="0px"
	 width="100px" height="100px" viewBox="0 0 100 100" enable-background="new 0 0 100 100" xml:space="preserve">
<title>Asset 2</title>
<g id="Layer_2">
	<g id="Layer_1-2">
		<path fill="#FFFFFF" d="M58.466,73.411L23.255,3.758c-0.135-0.304-0.296-0.597-0.481-0.874l-0.052-0.083l-0.227-0.315
			c-0.079-0.101-0.157-0.205-0.24-0.302l-0.057-0.066c-1.86-2.113-4.91-2.708-7.428-1.451l0,0c-2.199,1.114-3.53,3.425-3.391,5.886
			L9.915,30.02c-0.281,3.406,2.253,6.394,5.659,6.675c3.406,0.281,6.394-2.253,6.675-5.659c0.007-0.084,0.012-0.168,0.016-0.251
			l0.083-1.372l25.078,49.57c1.437,3.1,5.115,4.449,8.216,3.012c3.1-1.437,4.449-5.115,3.012-8.216
			C58.594,73.653,58.532,73.531,58.466,73.411z"/>
		<path fill="#FFFFFF" d="M54.026,21.016l35.395,70.01c1.542,3.05,0.319,6.772-2.73,8.314l0,0c-3.05,1.542-6.772,0.319-8.314-2.73
			l-35.395-70.01c-1.542-3.05-0.319-6.772,2.73-8.314l0,0C48.762,16.744,52.484,17.966,54.026,21.016z"/>
	</g>
</g>
</svg>
