<svg id="Duotone" xmlns="http://www.w3.org/2000/svg" xmlns:xlink="http://www.w3.org/1999/xlink" viewBox="0 0 100 112"><defs><style>.cls-1,.cls-5,.cls-6,.cls-9{fill:none;}.cls-2{fill:#f0f2ff;}.cls-3{clip-path:url(#clip-path);}.cls-4,.cls-7{fill:#fff;}.cls-4,.cls-5,.cls-6,.cls-9{stroke:#4550e5;}.cls-4,.cls-6{stroke-linecap:round;}.cls-4,.cls-6,.cls-9{stroke-linejoin:round;}.cls-5{stroke-miterlimit:10;}.cls-8{fill:#d6daff;}</style><clipPath id="clip-path"><circle class="cls-1" cx="50" cy="56" r="40"/></clipPath></defs><title>05- mail-letter-content-1</title><g id="Icons"><g id="Background"><circle class="cls-2" cx="50" cy="56" r="40"/></g><g id="Scene"><g class="cls-3"><path class="cls-4" d="M57.25,67l5.23-5.63a4.64,4.64,0,0,1,1.29-.91l6.28-3c.74-.82.88.35,1.7,1.09s3.17,4,2.43,4.78L67.6,70.42h0l0,1.76a2,2,0,0,1-4,.1,2,2,0,0,1-2.94-2.13l.24-1.24-.72.77a2,2,0,1,1-3-2.68Z"/><path class="cls-5" d="M65.1,68.41l-.48,2.5a2,2,0,1,1-3.93-.76"/><line class="cls-5" x1="64.03" y1="65.58" x2="60.21" y2="69.68"/><line class="cls-6" x1="67.86" y1="62.47" x2="69.5" y2="61.65"/><path class="cls-7" d="M73.13,84.75,83.36,82v0c-.53-13-2-26.92-20-32.53l-1-.33a2,2,0,1,0-1.2,3.82l1,.32c4.54,1.43,7.86,3.41,9.54,7.84,2.61,6.66-1.61,4.91-3,2.65L65.58,59a2,2,0,1,0-3.37,2.15c4.2,9.76,3.87,11.84,7,14.8C71.48,78.14,71.87,80.09,73.13,84.75Z"/><path class="cls-6" d="M73.13,84.75,83.36,82v0c-.53-13-2-26.92-20-32.53l-1-.33a2,2,0,1,0-1.2,3.82l1,.32c4.54,1.43,7.86,3.41,9.54,7.84,2.61,6.66-1.61,4.91-3,2.65L65.58,59a2,2,0,1,0-3.37,2.15c4.2,9.76,3.87,11.84,7,14.8C71.48,78.14,71.87,80.09,73.13,84.75Z"/><path class="cls-8" d="M46.92,60.92a4,4,0,0,0,4.14,0L67.49,51,51.56,37.65a4,4,0,0,0-5.14,0L30.51,51Z"/><path class="cls-6" d="M46.92,60.92a4,4,0,0,0,4.14,0L67.49,51,51.56,37.65a4,4,0,0,0-5.14,0L30.51,51Z"/><rect class="cls-7" x="36" y="33" width="26" height="29.5" rx="1" ry="1"/><rect class="cls-6" x="36" y="33" width="26" height="29.5" rx="1" ry="1"/><line class="cls-6" x1="39.49" y1="40" x2="45.49" y2="40"/><line class="cls-6" x1="42.49" y1="44.5" x2="57.49" y2="44.5"/><line class="cls-6" x1="39.49" y1="47" x2="57.49" y2="47"/><line class="cls-6" x1="39.49" y1="49.5" x2="57.49" y2="49.5"/><line class="cls-6" x1="39.49" y1="52" x2="57.49" y2="52"/><path class="cls-7" d="M30.5,51l16.42,9.94a4,4,0,0,0,4.14,0L67.5,51V70.5a4,4,0,0,1-4,4h-29a4,4,0,0,1-4-4Z"/><path class="cls-6" d="M30.5,51l15.12,9.15L31.54,73.2a4,4,0,0,1-1-2.7Z"/><path class="cls-6" d="M67.5,51V70.5a4,4,0,0,1-1.06,2.7L52.36,60.13Z"/><path class="cls-4" d="M66.44,73.2h0A4,4,0,0,1,63.5,74.5h-29a4,4,0,0,1-2.83-1.17l-.12-.13L45.62,60.13l.65-.6a4,4,0,0,1,5.44,0l.65.6Z"/><path class="cls-4" d="M72.11,65.55c-.79.68-2.61-.49-3.42-1.83L65.58,59a2,2,0,1,0-3.37,2.15c4.2,9.76,3.87,11.84,7,14.8,2.31,2.2,2.7,4.15,4,8.81l5-1.36"/><rect class="cls-8" x="75.83" y="78.94" width="7" height="15.5" rx="1" ry="1" transform="translate(16.52 185.99) rotate(-105.22)"/><rect class="cls-9" x="75.83" y="78.94" width="7" height="15.5" rx="1" ry="1" transform="translate(16.52 185.99) rotate(-105.22)"/><path class="cls-4" d="M77.52,75.11h2a0,0,0,0,1,0,0v13.5a0,0,0,0,1,0,0h-2a1,1,0,0,1-1-1V76.11A1,1,0,0,1,77.52,75.11Z" transform="matrix(0.26, 0.96, -0.96, 0.26, 136.52, -14.92)"/></g></g></g></svg>