<?xml version="1.0" encoding="utf-8"?>
<!-- Generator: Adobe Illustrator 22.0.1, SVG Export Plug-In . SVG Version: 6.00 Build 0)  -->
<svg version="1.1" id="Layer_1" xmlns="http://www.w3.org/2000/svg" xmlns:xlink="http://www.w3.org/1999/xlink" x="0px" y="0px"
	 viewBox="0 0 1080 2400" style="enable-background:new 0 0 1080 2400;" xml:space="preserve">
<style type="text/css">
	.st0{fill:#EF9A9B;stroke:#EF9A9B;stroke-width:0.75;stroke-miterlimit:10;}
	.st1{fill:#DEBDDB;stroke:#DEBDDB;stroke-width:0.75;stroke-miterlimit:10;}
	.st2{fill:#FEF59F;stroke:#FEF59F;stroke-width:0.75;stroke-miterlimit:10;}
	.st3{fill:#C6E0A6;stroke:#C6E0A6;stroke-width:0.75;stroke-miterlimit:10;}
	.st4{fill:none;stroke:#C6E0A6;stroke-width:3;stroke-miterlimit:10;}
	.st5{fill:#EF9A9B;}
	.st6{fill:none;stroke:#89D3E2;stroke-width:3;stroke-miterlimit:10;}
	.st7{fill:none;stroke:#DEBDDB;stroke-width:3;stroke-miterlimit:10;}
	.st8{fill:#89D3E2;}
</style>
<path class="st0" d="M864,1495.6C864,1495.6,864,1495.6,864,1495.6c0,0.1,0.1,0.2,0.1,0.2c0.1,0.1,0.2,0.2,0.2,0.2
	c0.2,0.2,0.5,0.3,0.8,0.3c0.7,0,1.3-0.6,1.3-1.3c0-0.2-0.1-0.5-0.2-0.6c0-0.1-0.1-0.1-0.1-0.2c-5.3-9.2,17.2-10.5-6,24
	c-0.2,0.3-0.4,0.6-0.5,0.8c-0.2,0.2-0.3,0.5-0.3,0.8c0,0.7,0.5,1.3,1.2,1.3c0.2,0,0.5-0.1,0.6-0.2c0,0,0,0,0,0
	c0.1-0.1,0.2-0.2,0.3-0.3c0.2-0.2,0.4-0.6,0.8-1.1C889.3,1479.4,856.5,1480.7,864,1495.6z"/>
<path class="st1" d="M149.9,829.8c0.1-0.2,0.1-0.4,0-0.5l-2.2-5.9c-0.1-0.3-0.5-0.5-0.8-0.4s-0.5,0.6-0.4,0.9l2,5.3l-5.1,2.3
	c-0.2,0.1-0.3,0.2-0.4,0.4c-0.1,0.2-0.1,0.4,0,0.5l2,5.3l-5.1,2.3c-0.2,0.1-0.3,0.2-0.4,0.4c-0.1,0.2-0.1,0.4,0,0.5l2,5.3l-5.1,2.3
	c-0.3,0.2-0.5,0.6-0.4,0.9c0.1,0.3,0.5,0.5,0.8,0.4l5.8-2.6c0.2-0.1,0.3-0.2,0.4-0.4c0.1-0.2,0.1-0.4,0-0.5l-2-5.3l5.2-2.3
	c0.2-0.1,0.3-0.2,0.4-0.4c0.1-0.2,0.1-0.4,0-0.5l-2-5.3l5.1-2.3C149.7,830.1,149.8,829.9,149.9,829.8z"/>
<path class="st2" d="M489.2,1064.6c-18.2-19.4,8.9-8.1-1.6-28.5c-0.3-0.8-1.3-1.4-2.5-1.4c-1.4,0-2.6,0.8-2.6,1.9
	c0,0.2,0.1,0.5,0.2,0.7c0,0,0,0.1,0.1,0.2c10.2,17.3-17.6,7.8,2.6,29.4c0.1,0.1,0.2,0.2,0.2,0.2c0.4,0.4,1.1,0.6,1.8,0.6
	c1.3,0,2.4-0.8,2.4-1.8c0-0.3-0.1-0.7-0.3-0.9C489.4,1064.8,489.3,1064.7,489.2,1064.6z"/>
<g>
	<path class="st3" d="M350.9,1428.2c-0.3-0.7,0-0.1,0-0.1c0.1-1.4,0.5-2.6,2.3-3c5.4-1.3,9.9-4.5,12.3-9.6c0.8-1.6,2.5-1.7,3.4-1.6
		c0.7,0.1,0.1,0,0.1,0c1.3,1,1.8,1.5,0.7,3.6c-3.4,6.2-8.8,10.3-15.6,12.1C351.9,1430.2,351.4,1429.1,350.9,1428.2z"/>
	
		<ellipse transform="matrix(0.7902 -0.6128 0.6128 0.7902 -790.522 522.5209)" class="st3" cx="367.9" cy="1415.9" rx="2.5" ry="2.2"/>
	
		<ellipse transform="matrix(0.7902 -0.6128 0.6128 0.7902 -800.6721 515.9033)" class="st3" cx="353.2" cy="1427.4" rx="2.5" ry="2.2"/>
</g>
<circle class="st4" cx="677.1" cy="760.7" r="9.9"/>
<polygon class="st5" points="206.3,642.6 188.3,645.5 181.7,662.6 193.3,676.8 211.3,673.9 217.9,656.8 "/>
<polygon class="st6" points="879.2,961.5 862.1,955 848,966.6 850.9,984.7 868,991.2 882.2,979.6 "/>
<polygon class="st7" points="84.3,1242.4 63,1262.1 90.6,1270.7 "/>
<path class="st0" d="M365.2,1697.5C365.2,1697.5,365.2,1697.5,365.2,1697.5c0,0.1,0.1,0.2,0.1,0.2c0.1,0.1,0.2,0.2,0.2,0.2
	c0.2,0.2,0.5,0.3,0.8,0.3c0.7,0,1.3-0.6,1.3-1.3c0-0.2-0.1-0.5-0.2-0.6c0-0.1-0.1-0.1-0.1-0.2c-5.3-9.2,17.2-10.5-6,24
	c-0.2,0.3-0.4,0.6-0.5,0.8c-0.2,0.2-0.3,0.5-0.3,0.8c0,0.7,0.5,1.3,1.2,1.3c0.2,0,0.5-0.1,0.6-0.2c0,0,0,0,0,0
	c0.1-0.1,0.2-0.2,0.3-0.3c0.2-0.2,0.4-0.6,0.8-1.1C390.5,1681.4,357.7,1682.6,365.2,1697.5z"/>
<polygon class="st6" points="149.9,1423.9 132.8,1417.5 118.6,1429.1 121.6,1447.1 138.7,1453.6 152.8,1442 "/>
<polygon class="st6" points="798.2,2252.9 781.1,2246.4 766.9,2258 769.8,2276.1 787,2282.5 801.1,2270.9 "/>
<polygon class="st6" points="737.6,457.9 720.5,451.4 706.3,463 709.3,481 726.4,487.5 740.5,475.9 "/>
<path class="st1" d="M829.8,1202.6c-0.1-0.2-0.2-0.3-0.4-0.4l-5.9-2.2c-0.3-0.1-0.7,0.1-0.8,0.4c-0.1,0.4,0.1,0.7,0.4,0.9l5.3,2
	l-1.6,5.4c-0.1,0.2,0,0.4,0.1,0.5c0.1,0.2,0.2,0.3,0.4,0.4l5.3,2l-1.6,5.4c-0.1,0.2,0,0.4,0.1,0.5c0.1,0.2,0.2,0.3,0.4,0.4l5.3,2
	l-1.6,5.4c-0.1,0.4,0.1,0.7,0.4,0.9s0.7-0.1,0.8-0.4l1.8-6.1c0.1-0.2,0-0.4-0.1-0.5c-0.1-0.2-0.2-0.3-0.4-0.4l-5.3-2l1.6-5.4
	c0.1-0.2,0-0.4-0.1-0.5c-0.1-0.2-0.2-0.3-0.4-0.4l-5.3-2l1.6-5.4C829.9,1202.9,829.9,1202.8,829.8,1202.6z"/>
<path class="st2" d="M528.4,1533.5c-18.2-19.4,8.9-8.1-1.6-28.5c-0.3-0.8-1.3-1.4-2.5-1.4c-1.4,0-2.6,0.8-2.6,1.9
	c0,0.2,0.1,0.5,0.2,0.7c0,0,0,0.1,0.1,0.2c10.2,17.3-17.6,7.8,2.6,29.4c0.1,0.1,0.2,0.2,0.2,0.2c0.4,0.4,1.1,0.6,1.8,0.6
	c1.3,0,2.4-0.8,2.4-1.8c0-0.3-0.1-0.7-0.3-0.9C528.6,1533.6,528.5,1533.6,528.4,1533.5z"/>
<path class="st2" d="M143.3,2276.7c-18.2-19.4,8.9-8.1-1.6-28.5c-0.3-0.8-1.3-1.4-2.5-1.4c-1.4,0-2.6,0.8-2.6,1.9
	c0,0.2,0.1,0.5,0.2,0.7c0,0,0,0.1,0.1,0.2c10.2,17.3-17.6,7.8,2.6,29.4c0.1,0.1,0.2,0.2,0.2,0.2c0.4,0.4,1.1,0.6,1.8,0.6
	c1.3,0,2.4-0.8,2.4-1.8c0-0.3-0.1-0.7-0.3-0.9C143.4,2276.8,143.4,2276.8,143.3,2276.7z"/>
<circle class="st4" cx="1064.2" cy="1253.6" r="9.9"/>
<circle class="st4" cx="51.9" cy="1821.5" r="9.9"/>
<path class="st2" d="M146.1,335.8c-18.2-19.4,8.9-8.1-1.6-28.5c-0.3-0.8-1.3-1.4-2.5-1.4c-1.4,0-2.6,0.8-2.6,1.9
	c0,0.2,0.1,0.5,0.2,0.7c0,0,0,0.1,0.1,0.2c10.2,17.3-17.6,7.8,2.6,29.4c0.1,0.1,0.2,0.2,0.2,0.2c0.4,0.4,1.1,0.6,1.8,0.6
	c1.3,0,2.4-0.8,2.4-1.8c0-0.3-0.1-0.7-0.3-0.9C146.3,336,146.2,335.9,146.1,335.8z"/>
<polygon class="st8" points="214.3,67.1 206.7,95.1 234.7,87.7 "/>
<path class="st1" d="M307.9,233.2c-0.1-0.2-0.2-0.3-0.4-0.4l-5.9-2.2c-0.3-0.1-0.7,0.1-0.8,0.4s0.1,0.7,0.4,0.9l5.3,2l-1.6,5.4
	c-0.1,0.2,0,0.4,0.1,0.5c0.1,0.2,0.2,0.3,0.4,0.4l5.3,2l-1.6,5.4c-0.1,0.2,0,0.4,0.1,0.5c0.1,0.2,0.2,0.3,0.4,0.4l5.3,2l-1.6,5.4
	c-0.1,0.4,0.1,0.7,0.4,0.9s0.7-0.1,0.8-0.4l1.8-6.1c0.1-0.2,0-0.4-0.1-0.5c-0.1-0.2-0.2-0.3-0.4-0.4l-5.3-2l1.6-5.4
	c0.1-0.2,0-0.4-0.1-0.5c-0.1-0.2-0.2-0.3-0.4-0.4l-5.3-2l1.6-5.4C308.1,233.6,308,233.4,307.9,233.2z"/>
<circle class="st4" cx="93.2" cy="144" r="9.9"/>
<polygon class="st5" points="222.6,1055.4 204.6,1058.3 198.1,1075.4 209.6,1089.6 227.7,1086.7 234.2,1069.6 "/>
<polygon class="st5" points="906.4,625.6 888.4,628.4 881.8,645.5 893.4,659.7 911.4,656.8 918,639.8 "/>
<polygon class="st8" points="594.1,1229.3 586.6,1257.3 614.6,1249.8 "/>
<polygon class="st7" points="111.8,423.6 90.5,443.2 118.2,451.9 "/>
<polygon class="st7" points="964.3,808.8 943,828.4 970.7,837 "/>
<circle class="st4" cx="1022.8" cy="479.4" r="9.9"/>
<path class="st2" d="M760.5,125.9c-18.2-19.4,8.9-8.1-1.6-28.5c-0.3-0.8-1.3-1.4-2.5-1.4c-1.4,0-2.6,0.8-2.6,1.9
	c0,0.2,0.1,0.5,0.2,0.7c0,0,0,0.1,0.1,0.2c10.2,17.3-17.6,7.8,2.6,29.4c0.1,0.1,0.2,0.2,0.2,0.2c0.4,0.4,1.1,0.6,1.8,0.6
	c1.3,0,2.4-0.8,2.4-1.8c0-0.3-0.1-0.7-0.3-0.9C760.6,126.1,760.6,126,760.5,125.9z"/>
<g>
	<path class="st3" d="M427.5,393.4C426.8,393.3,427.4,393.4,427.5,393.4c-1-0.7-1.7-1.6-1-2.8c2.1-3.9,2.3-8.1,0-12
		c-0.7-1.2,0.1-2.3,0.7-2.8c0.5-0.4,0-0.1,0-0.1c1.4-0.3,2.1-0.3,2.9,1.3c2.6,5,2.5,10.2,0,15.1
		C429.4,393.7,428.4,393.6,427.5,393.4z"/>
	<ellipse class="st3" cx="428.1" cy="377.4" rx="2" ry="1.9"/>
	<circle class="st3" cx="428.2" cy="391.7" r="1.9"/>
</g>
<g>
	<path class="st3" d="M952.1,206.1c-0.3-0.7,0-0.1,0-0.1c0.1-1.4,0.5-2.6,2.3-3c5.4-1.3,9.9-4.5,12.3-9.6c0.8-1.6,2.5-1.7,3.4-1.6
		c0.7,0.1,0.1,0,0.1,0c1.3,1,1.8,1.5,0.7,3.6c-3.4,6.2-8.8,10.3-15.6,12.1C953.1,208,952.6,207,952.1,206.1z"/>
	
		<ellipse transform="matrix(0.7902 -0.6128 0.6128 0.7902 84.5693 634.5642)" class="st3" cx="969.1" cy="193.8" rx="2.5" ry="2.2"/>
	<ellipse transform="matrix(0.7902 -0.6128 0.6128 0.7902 74.419 627.9466)" class="st3" cx="954.4" cy="205.3" rx="2.5" ry="2.2"/>
</g>
<polygon class="st5" points="493.9,116.7 475.8,119.6 469.3,136.7 480.9,150.9 498.9,148 505.5,130.9 "/>
<polygon class="st8" points="844.9,270 837.4,298 865.4,290.5 "/>
<circle class="st4" cx="432.1" cy="2313.3" r="9.9"/>
<path class="st2" d="M1019.7,2346.2c-18.2-19.4,8.9-8.1-1.6-28.5c-0.3-0.8-1.3-1.4-2.5-1.4c-1.4,0-2.6,0.8-2.6,1.9
	c0,0.2,0.1,0.5,0.2,0.7c0,0,0,0.1,0.1,0.2c10.2,17.3-17.6,7.8,2.6,29.4c0.1,0.1,0.2,0.2,0.2,0.2c0.4,0.4,1.1,0.6,1.8,0.6
	c1.3,0,2.4-0.8,2.4-1.8c0-0.3-0.1-0.7-0.3-0.9C1019.8,2346.4,1019.8,2346.3,1019.7,2346.2z"/>
<polygon class="st8" points="428,758.8 435.5,786.8 456,766.3 "/>
<circle class="st4" cx="966.8" cy="2154.4" r="9.9"/>
<path class="st0" d="M728.1,1983.7C728.1,1983.7,728.1,1983.7,728.1,1983.7c0,0.1,0.1,0.2,0.1,0.2c0.1,0.1,0.2,0.2,0.2,0.2
	c0.2,0.2,0.5,0.3,0.8,0.3c0.7,0,1.3-0.6,1.3-1.3c0-0.2-0.1-0.5-0.2-0.6c0-0.1-0.1-0.1-0.1-0.2c-5.3-9.2,17.2-10.5-6,24
	c-0.2,0.3-0.4,0.6-0.5,0.8c-0.2,0.2-0.3,0.5-0.3,0.8c0,0.7,0.5,1.3,1.2,1.3c0.2,0,0.5-0.1,0.6-0.2c0,0,0,0,0,0
	c0.1-0.1,0.2-0.2,0.3-0.3c0.2-0.2,0.4-0.6,0.8-1.1C753.3,1967.6,720.6,1968.8,728.1,1983.7z"/>
<g>
	<path class="st3" d="M1003.6,1767.3C1002.9,1767.2,1003.5,1767.3,1003.6,1767.3c-1-0.7-1.7-1.6-1-2.8c2.1-3.9,2.3-8.1,0-12
		c-0.7-1.2,0.1-2.3,0.7-2.8c0.5-0.4,0-0.1,0-0.1c1.4-0.3,2.1-0.3,2.9,1.3c2.6,5,2.5,10.2,0,15.1
		C1005.6,1767.7,1004.5,1767.5,1003.6,1767.3z"/>
	<ellipse class="st3" cx="1004.2" cy="1751.3" rx="2" ry="1.9"/>
	<circle class="st3" cx="1004.3" cy="1765.6" r="1.9"/>
</g>
<g>
	<path class="st3" d="M442.2,1957.8c-0.3-0.7,0-0.1,0-0.1c0.1-1.4,0.5-2.6,2.3-3c5.4-1.3,9.9-4.5,12.3-9.6c0.8-1.6,2.5-1.7,3.4-1.6
		c0.7,0.1,0.1,0,0.1,0c1.3,1,1.8,1.5,0.7,3.6c-3.4,6.2-8.8,10.3-15.6,12.1C443.2,1959.8,442.6,1958.8,442.2,1957.8z"/>
	
		<ellipse transform="matrix(0.7902 -0.6128 0.6128 0.7902 -1095.9501 689.5527)" class="st3" cx="459.2" cy="1945.5" rx="2.5" ry="2.2"/>
	
		<ellipse transform="matrix(0.7902 -0.6128 0.6128 0.7902 -1106.1001 682.935)" class="st3" cx="444.4" cy="1957" rx="2.5" ry="2.2"/>
</g>
<polygon class="st7" points="115.3,2009.2 94,2028.8 121.7,2037.4 "/>
<path class="st1" d="M845.2,1635.2c0.1-0.2,0.1-0.4,0-0.5l-2.2-5.9c-0.1-0.3-0.5-0.5-0.8-0.4s-0.5,0.6-0.4,0.9l2,5.3l-5.1,2.3
	c-0.2,0.1-0.3,0.2-0.4,0.4c-0.1,0.2-0.1,0.4,0,0.5l2,5.3l-5.1,2.3c-0.2,0.1-0.3,0.2-0.4,0.4c-0.1,0.2-0.1,0.4,0,0.5l2,5.3l-5.1,2.3
	c-0.3,0.2-0.5,0.6-0.4,0.9c0.1,0.3,0.5,0.5,0.8,0.4l5.8-2.6c0.2-0.1,0.3-0.2,0.4-0.4c0.1-0.2,0.1-0.4,0-0.5l-2-5.3l5.2-2.3
	c0.2-0.1,0.3-0.2,0.4-0.4c0.1-0.2,0.1-0.4,0-0.5l-2-5.3l5.1-2.3C845,1635.5,845.2,1635.3,845.2,1635.2z"/>
<path class="st1" d="M921.7,1958.1c0.1-0.2,0.1-0.4,0-0.5l-2.2-5.9c-0.1-0.3-0.5-0.5-0.8-0.4c-0.3,0.2-0.5,0.6-0.4,0.9l2,5.3
	l-5.1,2.3c-0.2,0.1-0.3,0.2-0.4,0.4c-0.1,0.2-0.1,0.4,0,0.5l2,5.3l-5.1,2.3c-0.2,0.1-0.3,0.2-0.4,0.4c-0.1,0.2-0.1,0.4,0,0.5l2,5.3
	l-5.1,2.3c-0.3,0.2-0.5,0.6-0.4,0.9s0.5,0.5,0.8,0.4l5.8-2.6c0.2-0.1,0.3-0.2,0.4-0.4c0.1-0.2,0.1-0.4,0-0.5l-2-5.3l5.2-2.3
	c0.2-0.1,0.3-0.2,0.4-0.4c0.1-0.2,0.1-0.4,0-0.5l-2-5.3l5.1-2.3C921.5,1958.4,921.6,1958.3,921.7,1958.1z"/>
<polygon class="st8" points="522.9,2148.6 515.3,2176.6 543.3,2169.1 "/>
<polygon class="st5" points="310.2,2127.4 292.1,2130.3 285.6,2147.4 297.1,2161.6 315.2,2158.7 321.7,2141.6 "/>
<polygon class="st8" points="670.6,1716.9 663.1,1744.9 691.1,1737.5 "/>
<polygon class="st7" points="112.8,1625.8 91.5,1645.5 119.2,1654.1 "/>
</svg>
