<svg id="Duotone" xmlns="http://www.w3.org/2000/svg" viewBox="0 0 100 112"><defs><style>.cls-1{fill:#f0f2ff;}.cls-2{fill:none;}.cls-2,.cls-5,.cls-6,.cls-8{stroke:#4550e5;stroke-linejoin:round;}.cls-2,.cls-5,.cls-6{stroke-linecap:round;}.cls-3,.cls-6{fill:#fff;}.cls-4,.cls-5,.cls-8{fill:#d6daff;}.cls-7{fill:#4550e5;}</style></defs><title>06- video-call-2</title><g id="Icons"><path class="cls-1" d="M90.5,56A40,40,0,1,0,14.06,72.5H86.94A39.88,39.88,0,0,0,90.5,56Z"/><line class="cls-2" x1="11.5" y1="72.5" x2="89.5" y2="72.5"/><line class="cls-2" x1="7" y1="72.5" x2="9.5" y2="72.5"/><line class="cls-2" x1="91.5" y1="72.5" x2="94" y2="72.5"/><path class="cls-3" d="M39,54a6,6,0,0,0,6-6V36A12,12,0,0,0,32.2,24,12.28,12.28,0,0,0,21,36.41V48a6,6,0,0,0,6,6Z"/><path class="cls-2" d="M39,54a6,6,0,0,0,6-6V36A12,12,0,0,0,32.2,24,12.28,12.28,0,0,0,21,36.41V48a6,6,0,0,0,6,6Z"/><path class="cls-4" d="M48.5,72.5v-4a15.5,15.5,0,0,0-31,0v4Z"/><path class="cls-2" d="M48.5,72.5v-4a15.5,15.5,0,0,0-31,0v4Z"/><path class="cls-5" d="M40,55.83A3.82,3.82,0,0,0,36.17,52H29.83A3.82,3.82,0,0,0,26,55.83a3.87,3.87,0,0,0,.23,1.3L28,62l5-3,5,3,1.77-4.87A3.87,3.87,0,0,0,40,55.83Z"/><line class="cls-2" x1="33" y1="59" x2="33" y2="72.5"/><polygon class="cls-3" points="36.5 55.5 33 59 29.5 55.5 29.5 50 36.5 50 36.5 55.5"/><polygon class="cls-2" points="36.5 55.5 33 59 29.5 55.5 29.5 50 36.5 50 36.5 55.5"/><line class="cls-2" x1="23.5" y1="67" x2="23.5" y2="72.5"/><line class="cls-2" x1="42.5" y1="67" x2="42.5" y2="72.5"/><path class="cls-6" d="M43,39.5V37c0-.24,0-.46,0-.69a11,11,0,0,1-13.54-2.93A5.44,5.44,0,0,1,23,37.9v1.6a2,2,0,0,0,0,4h.12a10,10,0,0,0,19.76,0H43a2,2,0,0,0,0-4Z"/><path class="cls-2" d="M30,46.3a4.38,4.38,0,0,0,6,0"/><path class="cls-2" d="M38.5,40.5a1.63,1.63,0,0,0-3,0"/><path class="cls-2" d="M30.51,40.5a1.63,1.63,0,0,0-3,0"/><circle class="cls-4" cx="27.25" cy="43.75" r="1.25"/><circle class="cls-4" cx="38.75" cy="43.75" r="1.25"/><path class="cls-6" d="M86,40.5H76l-5.5,7-5.5-7H55a5,5,0,0,1-5-5V8.5a5,5,0,0,1,5-5H86a5,5,0,0,1,5,5v27A5,5,0,0,1,86,40.5Z"/><rect class="cls-4" x="54" y="7.5" width="33" height="29" rx="2" ry="2"/><path class="cls-3" d="M74,7.5H56a2,2,0,0,0-2,2v18Z"/><path class="cls-6" d="M79.61,23a1.55,1.55,0,0,0-1.27-1.51v-1a7.59,7.59,0,0,0-15.18,0v1a1.54,1.54,0,0,0,.16,3.06,7.59,7.59,0,0,0,14.86,0A1.56,1.56,0,0,0,79.61,23Z"/><path class="cls-7" d="M67.9,20.45a1,1,0,1,0,0,1.9.95.95,0,1,0,0-1.9Z"/><path class="cls-7" d="M73.6,20.45a.95.95,0,1,0,1,.95.95.95,0,0,0-1-.95Z"/><circle class="cls-4" cx="66.64" cy="23.93" r="0.95"/><circle class="cls-4" cx="74.86" cy="23.93" r="0.95"/><path class="cls-2" d="M68.85,26.21a3.45,3.45,0,0,0,3.8,0"/><path class="cls-3" d="M79,18.55a8.23,8.23,0,0,0-16.46,0v2.54A6.54,6.54,0,0,0,67,17.29C70.5,19.68,75.18,19.19,79,18.55Z"/><path class="cls-2" d="M79,18.55a8.23,8.23,0,0,0-16.46,0v2.54A6.54,6.54,0,0,0,67,17.29C70.5,19.68,75.18,19.19,79,18.55Z"/><path class="cls-2" d="M65.69,16A4.09,4.09,0,0,0,67,17.29"/><rect class="cls-2" x="54" y="7.5" width="33" height="29" rx="2" ry="2"/><path class="cls-6" d="M79.62,36.5a13.3,13.3,0,0,0-17.74,0Z"/><circle class="cls-6" cx="83" cy="11.5" r="2"/><ellipse class="cls-1" cx="50.98" cy="90.5" rx="15.5" ry="1.5"/><rect class="cls-3" x="26" y="50.5" width="50" height="32.58" rx="2" ry="2"/><path class="cls-6" d="M59.94,87.08a3,3,0,0,1-.36,2.16A2,2,0,0,1,58,90H44a2,2,0,0,1-1.54-.76,3,3,0,0,1-.36-2.16Z"/><rect class="cls-2" x="26" y="50.5" width="50" height="32.58" rx="2" ry="2"/><path class="cls-6" d="M58.3,90H43.65c1.84-4.88,2.45-18.92,2.45-18.92h9.76S56.47,85.12,58.3,90Z"/><line class="cls-2" x1="30" y1="79.08" x2="30" y2="81.08"/><line class="cls-2" x1="32" y1="79.08" x2="32" y2="81.08"/><line class="cls-2" x1="34" y1="79.08" x2="34" y2="81.08"/><line class="cls-2" x1="36" y1="79.08" x2="36" y2="81.08"/><path class="cls-8" d="M52.31,62.69A1.34,1.34,0,0,1,53,61.55a1.41,1.41,0,0,0-1.1-.6c-.47,0-.91.28-1.15.28s-.6-.27-1-.26a1.46,1.46,0,0,0-1.24.75,3.13,3.13,0,0,0,.38,3c.25.36.56.77,1,.76s.52-.25,1-.25.59.25,1,.24.67-.37.92-.73a3,3,0,0,0,.41-.86A1.31,1.31,0,0,1,52.31,62.69Z"/><line class="cls-2" x1="51.28" y1="59.4" x2="51.83" y2="58.85"/><line class="cls-2" x1="30" y1="53.5" x2="72" y2="53.5"/></g></svg>