<?xml version="1.0" encoding="utf-8"?>
<!-- Generator: Adobe Illustrator 22.0.1, SVG Export Plug-In . SVG Version: 6.00 Build 0)  -->
<svg version="1.1" id="Layer_1" xmlns="http://www.w3.org/2000/svg" xmlns:xlink="http://www.w3.org/1999/xlink" x="0px" y="0px"
	 viewBox="0 0 49.4 56.3" style="enable-background:new 0 0 49.4 56.3;" xml:space="preserve">
<style type="text/css">
	.st0{fill:#C6E0A6;}
	.st1{fill:none;stroke:#A2CC6D;stroke-linecap:round;stroke-linejoin:round;}
	.st2{fill:#C6E0A6;stroke:#A2CC6D;stroke-linecap:round;stroke-linejoin:round;}
	.st3{fill:#FFFFFF;}
	.st4{fill:#FFFFFF;stroke:#A2CC6D;stroke-linecap:round;stroke-linejoin:round;}
</style>
<title>Asset 1</title>
<g id="Layer_2_1_">
	<g id="Duotone">
		<g id="Icons">
			<g id="Scene">
				<path class="st0" d="M9.3,20l5.8-18.3c0.3-0.9,1.3-1.4,2.2-1.1l27.4,8.7c0.9,0.3,1.4,1.3,1.1,2.2L40,29.8
					c-0.3,0.9-1.3,1.4-2.2,1.1l-27.4-8.7C9.5,21.9,9,20.9,9.3,20z"/>
				<path class="st1" d="M9.3,20l5.8-18.3c0.3-0.9,1.3-1.4,2.2-1.1l27.4,8.7c0.9,0.3,1.4,1.3,1.1,2.2L40,29.8
					c-0.3,0.9-1.3,1.4-2.2,1.1l-27.4-8.7C9.5,21.9,9,20.9,9.3,20z"/>
				<path class="st2" d="M15.1,1.7L15,2l11,12.6c0.9,1,2.2,1.4,3.4,1.1l16.3-3.9l0.1-0.2c0.3-0.9-0.2-1.9-1.1-2.2L17.3,0.6
					C16.4,0.3,15.4,0.8,15.1,1.7z"/>
				<line class="st1" x1="9.3" y1="21.4" x2="24.8" y2="13.1"/>
				<line class="st1" x1="39.1" y1="30.8" x2="31.4" y2="15.2"/>
				<path class="st3" d="M3.2,13.7h33.4c1.1,0,2,0.9,2,2v20.1c0,1.1-0.9,2-2,2H3.2c-1.1,0-2-0.9-2-2V15.7C1.1,14.6,2,13.7,3.2,13.7z
					"/>
				<path class="st1" d="M3.2,13.7h33.4c1.1,0,2,0.9,2,2v20.1c0,1.1-0.9,2-2,2H3.2c-1.1,0-2-0.9-2-2V15.7C1.1,14.6,2,13.7,3.2,13.7z
					"/>
				<line class="st1" x1="5.8" y1="17.8" x2="11.5" y2="17.8"/>
				<line class="st1" x1="5.8" y1="20.6" x2="11.5" y2="20.6"/>
				<line class="st1" x1="5.8" y1="23.5" x2="11.5" y2="23.5"/>
				<rect x="26.5" y="17.8" class="st0" width="6.9" height="8"/>
				<rect x="26.5" y="17.8" class="st1" width="6.9" height="8"/>
				<line class="st1" x1="14.4" y1="33.3" x2="25.9" y2="33.3"/>
				<line class="st1" x1="15.5" y1="30.4" x2="24.7" y2="30.4"/>
				<path class="st4" d="M48.9,39c0,5.7-4.6,10.4-10.3,10.4c-5.7,0-10.4-4.6-10.4-10.3s4.6-10.4,10.3-10.4c0,0,0,0,0,0
					C44.2,28.7,48.9,33.3,48.9,39z"/>
				<path class="st2" d="M37,44.5c-0.5,0-1.1-0.2-1.5-0.6l-2.8-2.8c-0.8-0.8-0.8-2.1,0-2.9s2.1-0.8,2.9,0l1.3,1.3l4.3-4.5
					c0.8-0.8,2.2-0.8,3,0c0.8,0.8,0.8,2.2,0,3l0,0l-5.8,5.9C38.1,44.3,37.6,44.5,37,44.5z"/>
			</g>
		</g>
	</g>
</g>
</svg>
