<svg id="Duotone" xmlns="http://www.w3.org/2000/svg" viewBox="0 0 100 112"><defs><style>.cls-1{fill:#f0f2ff;}.cls-2,.cls-4{fill:#d6daff;}.cls-3{fill:none;}.cls-3,.cls-4,.cls-6{stroke:#4550e5;stroke-linecap:round;stroke-linejoin:round;}.cls-5,.cls-6{fill:#fff;}</style></defs><title>03- mail-letter-check</title><g id="Icons"><g id="Scene"><rect class="cls-2" x="41.5" y="29.52" width="22.65" height="32.24" rx="1.74" ry="1.74" transform="matrix(0.3, -0.95, 0.95, 0.3, -6.69, 82.13)"/><rect class="cls-3" x="41.5" y="29.52" width="22.65" height="32.24" rx="1.74" ry="1.74" transform="matrix(0.3, -0.95, 0.95, 0.3, -6.69, 82.13)"/><path class="cls-4" d="M40.37,31.61l-.08.26,11,12.6a3.49,3.49,0,0,0,3.43,1.09L71,41.65l.08-.25A1.74,1.74,0,0,0,70,39.21l-27.4-8.73A1.76,1.76,0,0,0,40.37,31.61Z"/><line class="cls-3" x1="34.58" y1="51.26" x2="50.02" y2="43"/><line class="cls-3" x1="64.42" y1="60.67" x2="56.64" y2="45.11"/><ellipse class="cls-2" cx="49.71" cy="84.45" rx="24.44" ry="1.73"/><rect class="cls-5" x="26.43" y="43.63" width="37.37" height="24.15" rx="2" ry="2"/><rect class="cls-3" x="26.43" y="43.63" width="37.37" height="24.15" rx="2" ry="2"/><line class="cls-3" x1="31.03" y1="47.65" x2="36.78" y2="47.65"/><line class="cls-3" x1="31.03" y1="50.53" x2="36.78" y2="50.53"/><line class="cls-3" x1="31.03" y1="53.4" x2="36.78" y2="53.4"/><rect class="cls-2" x="51.73" y="47.65" width="6.9" height="8.05"/><rect class="cls-3" x="51.73" y="47.65" width="6.9" height="8.05"/><line class="cls-3" x1="39.65" y1="63.18" x2="51.15" y2="63.18"/><line class="cls-3" x1="40.8" y1="60.3" x2="50" y2="60.3"/><path class="cls-6" d="M74.15,68.93A10.35,10.35,0,1,1,63.8,58.58,10.35,10.35,0,0,1,74.15,68.93Z"/><path class="cls-4" d="M62.31,74.36a2.07,2.07,0,0,1-1.47-.61L58.08,71A2.07,2.07,0,0,1,61,68.07l1.3,1.29,4.28-4.43a2.07,2.07,0,0,1,2.93,2.93l-5.75,5.89A2,2,0,0,1,62.31,74.36Z"/></g></g></svg>