<svg id="Duotone" xmlns="http://www.w3.org/2000/svg" viewBox="0 0 100 112"><defs><style>.cls-1{fill:#f0f2ff;}.cls-2{fill:none;}.cls-2,.cls-3,.cls-7{stroke:#4550e5;stroke-linecap:round;stroke-linejoin:round;}.cls-3,.cls-6{fill:#fff;}.cls-4{fill:#4550e5;}.cls-5,.cls-7{fill:#d6daff;}</style></defs><title>43- user-rating-male-african-american</title><g id="Icons"><path class="cls-1" d="M90,56A40,40,0,1,0,13.56,72.5H86.44A39.85,39.85,0,0,0,90,56Z"/><line class="cls-2" x1="11" y1="72.5" x2="89" y2="72.5"/><line class="cls-2" x1="6.5" y1="72.5" x2="9" y2="72.5"/><line class="cls-2" x1="91" y1="72.5" x2="93.5" y2="72.5"/><ellipse class="cls-1" cx="50" cy="93.28" rx="12.65" ry="1.73"/><path class="cls-3" d="M58.05,39.8a1.42,1.42,0,0,0-1.15-1.38V37.5a6.9,6.9,0,0,0-13.8,0v.92a1.41,1.41,0,0,0,.14,2.79,6.9,6.9,0,0,0,13.51,0A1.42,1.42,0,0,0,58.05,39.8Z"/><path class="cls-4" d="M47.41,37.5a.87.87,0,1,0,.86.86.87.87,0,0,0-.86-.86Z"/><path class="cls-4" d="M52.59,37.5a.87.87,0,1,0,.86.86.87.87,0,0,0-.86-.86Z"/><circle class="cls-5" cx="46.26" cy="40.66" r="0.86"/><circle class="cls-5" cx="53.74" cy="40.66" r="0.86"/><path class="cls-6" d="M57.47,35.78a7.48,7.48,0,1,0-14.95,0v2.3a6.31,6.31,0,0,0,2.33-2.85,2.25,2.25,0,0,1,2.41-1.38,18.57,18.57,0,0,0,5.47,0,2.27,2.27,0,0,1,2.42,1.38,6.35,6.35,0,0,0,2.32,2.85Z"/><path class="cls-2" d="M57.47,35.78a7.48,7.48,0,1,0-14.95,0v2.3a6.31,6.31,0,0,0,2.33-2.85,2.25,2.25,0,0,1,2.41-1.38,18.57,18.57,0,0,0,5.47,0,2.27,2.27,0,0,1,2.42,1.38,6.35,6.35,0,0,0,2.32,2.85Z"/><path class="cls-2" d="M48.27,42.73a3.1,3.1,0,0,0,3.45,0"/><path class="cls-6" d="M50,49c-5.93.12-11.5,4.48-11.5,12.08h4V69.7H57.47V61.08h4C61.5,53.48,55.93,49.12,50,49Z"/><path class="cls-7" d="M42.52,69.7V91.55H48l.63-14.26A1.44,1.44,0,0,1,50,75.92a1.43,1.43,0,0,1,1.32,1.37L52,91.55h5.52V69.7Z"/><path class="cls-2" d="M42.52,69.7V91.55H48l.63-14.26A1.44,1.44,0,0,1,50,75.92a1.43,1.43,0,0,1,1.32,1.37L52,91.55h5.52V69.7Z"/><path class="cls-3" d="M59.49,75.45h0a2,2,0,0,1-2-2V61.08h4V73.44A2,2,0,0,1,59.49,75.45Z"/><path class="cls-3" d="M40.51,75.45h0a2,2,0,0,1-2-2V61.08h4V73.44A2,2,0,0,1,40.51,75.45Z"/><path class="cls-2" d="M50,49c-5.93.12-11.5,4.48-11.5,12.08h4V69.7H57.47V61.08h4C61.5,53.48,55.93,49.12,50,49Z"/><line class="cls-2" x1="57.47" y1="61.08" x2="57.47" y2="57.28"/><line class="cls-2" x1="42.52" y1="61.08" x2="42.52" y2="57.28"/><path class="cls-3" d="M46.55,49.57h0a3.46,3.46,0,0,0,6.9,0h0a10.73,10.73,0,0,0-6.9,0Z"/><path class="cls-3" d="M42.55,92.7a1.15,1.15,0,0,1-1-1.67,3.45,3.45,0,0,1,3-1.78h.58a3.45,3.45,0,0,1,3,1.78,1.15,1.15,0,0,1-1,1.67Z"/><path class="cls-3" d="M52.89,92.7a1.15,1.15,0,0,1-1-1.67,3.45,3.45,0,0,1,3-1.78h.58a3.45,3.45,0,0,1,3,1.78,1.15,1.15,0,0,1-1,1.67Z"/><path class="cls-6" d="M40.23,20.34a.62.62,0,0,0-.17-.64.61.61,0,0,0-.64-.14L37,20.43a.63.63,0,0,1-.58-.08L34.5,19a.63.63,0,0,0-.66,0,.64.64,0,0,0-.34.57l.08,2.37a.64.64,0,0,1-.26.53l-2.06,1.52a.61.61,0,0,0-.25.61.6.6,0,0,0,.44.49l2.46.72a.62.62,0,0,1,.42.41l.81,2.43a.63.63,0,0,0,.51.43.62.62,0,0,0,.6-.27l1.39-2a.64.64,0,0,1,.52-.28h2.47a.62.62,0,0,0,.49-1l-1.57-2a.59.59,0,0,1-.1-.57Z"/><path class="cls-2" d="M40.23,20.34a.62.62,0,0,0-.17-.64.61.61,0,0,0-.64-.14L37,20.43a.63.63,0,0,1-.58-.08L34.5,19a.63.63,0,0,0-.66,0,.64.64,0,0,0-.34.57l.08,2.37a.64.64,0,0,1-.26.53l-2.06,1.52a.61.61,0,0,0-.25.61.6.6,0,0,0,.44.49l2.46.72a.62.62,0,0,1,.42.41l.81,2.43a.63.63,0,0,0,.51.43.62.62,0,0,0,.6-.27l1.39-2a.64.64,0,0,1,.52-.28h2.47a.62.62,0,0,0,.49-1l-1.57-2a.59.59,0,0,1-.1-.57Z"/><path class="cls-6" d="M29.42,30.7a.48.48,0,0,0-.39-.35.5.5,0,0,0-.49.19l-1.22,1.63a.47.47,0,0,1-.42.2L25,32.3a.49.49,0,0,0-.46.26.51.51,0,0,0,0,.53l1.09,1.54a.5.5,0,0,1,.06.46L25,37a.5.5,0,0,0,.1.52.49.49,0,0,0,.51.13l2-.6a.5.5,0,0,1,.46.08l1.6,1.27a.51.51,0,0,0,.81-.39l0-2a.51.51,0,0,1,.23-.41l1.63-1.09a.51.51,0,0,0-.12-.89L30.3,33a.48.48,0,0,1-.32-.33Z"/><path class="cls-2" d="M29.42,30.7a.48.48,0,0,0-.39-.35.5.5,0,0,0-.49.19l-1.22,1.63a.47.47,0,0,1-.42.2L25,32.3a.49.49,0,0,0-.46.26.51.51,0,0,0,0,.53l1.09,1.54a.5.5,0,0,1,.06.46L25,37a.5.5,0,0,0,.1.52.49.49,0,0,0,.51.13l2-.6a.5.5,0,0,1,.46.08l1.6,1.27a.51.51,0,0,0,.81-.39l0-2a.51.51,0,0,1,.23-.41l1.63-1.09a.51.51,0,0,0-.12-.89L30.3,33a.48.48,0,0,1-.32-.33Z"/><path class="cls-6" d="M59.77,20.34a.64.64,0,0,1,.16-.64.63.63,0,0,1,.65-.14l2.42.87a.61.61,0,0,0,.57-.08L65.5,19a.63.63,0,0,1,.66,0,.61.61,0,0,1,.33.57l-.07,2.37a.61.61,0,0,0,.26.53l2.06,1.52a.61.61,0,0,1,.25.61.6.6,0,0,1-.44.49l-2.47.72a.66.66,0,0,0-.42.41l-.8,2.43a.63.63,0,0,1-1.12.16l-1.38-2a.64.64,0,0,0-.52-.28H59.37a.62.62,0,0,1-.49-1l1.57-2a.62.62,0,0,0,.1-.57Z"/><path class="cls-2" d="M59.77,20.34a.64.64,0,0,1,.16-.64.63.63,0,0,1,.65-.14l2.42.87a.61.61,0,0,0,.57-.08L65.5,19a.63.63,0,0,1,.66,0,.61.61,0,0,1,.33.57l-.07,2.37a.61.61,0,0,0,.26.53l2.06,1.52a.61.61,0,0,1,.25.61.6.6,0,0,1-.44.49l-2.47.72a.66.66,0,0,0-.42.41l-.8,2.43a.63.63,0,0,1-1.12.16l-1.38-2a.64.64,0,0,0-.52-.28H59.37a.62.62,0,0,1-.49-1l1.57-2a.62.62,0,0,0,.1-.57Z"/><path class="cls-6" d="M70.57,30.7a.51.51,0,0,1,.39-.35.49.49,0,0,1,.49.19l1.23,1.63a.45.45,0,0,0,.41.2L75,32.3a.49.49,0,0,1,.46.26.51.51,0,0,1,0,.53l-1.09,1.54a.48.48,0,0,0-.06.46L75,37a.5.5,0,0,1-.1.52.49.49,0,0,1-.51.13l-1.95-.6a.5.5,0,0,0-.46.08l-1.6,1.27a.51.51,0,0,1-.53.05.49.49,0,0,1-.28-.44l0-2a.48.48,0,0,0-.22-.41l-1.63-1.09a.5.5,0,0,1,.12-.89L69.7,33a.5.5,0,0,0,.32-.33Z"/><path class="cls-2" d="M70.57,30.7a.51.51,0,0,1,.39-.35.49.49,0,0,1,.49.19l1.23,1.63a.45.45,0,0,0,.41.2L75,32.3a.49.49,0,0,1,.46.26.51.51,0,0,1,0,.53l-1.09,1.54a.48.48,0,0,0-.06.46L75,37a.5.5,0,0,1-.1.52.49.49,0,0,1-.51.13l-1.95-.6a.5.5,0,0,0-.46.08l-1.6,1.27a.51.51,0,0,1-.53.05.49.49,0,0,1-.28-.44l0-2a.48.48,0,0,0-.22-.41l-1.63-1.09a.5.5,0,0,1,.12-.89L69.7,33a.5.5,0,0,0,.32-.33Z"/><path class="cls-6" d="M56.34,17.78a.8.8,0,0,0,.2-.82.78.78,0,0,0-.65-.54L52.66,16a.81.81,0,0,1-.6-.44L50.72,12.8a.81.81,0,0,0-.72-.45.8.8,0,0,0-.72.45l-1.34,2.71a.81.81,0,0,1-.6.44l-3.24.47a.8.8,0,0,0-.44,1.36L46,20.06a.79.79,0,0,1,.23.71L45.68,24a.8.8,0,0,0,1.16.84l2.79-1.47a.81.81,0,0,1,.74,0l2.79,1.47A.8.8,0,0,0,54.32,24l-.55-3.23a.79.79,0,0,1,.23-.71Z"/><path class="cls-2" d="M56.34,17.78a.8.8,0,0,0,.2-.82.78.78,0,0,0-.65-.54L52.66,16a.81.81,0,0,1-.6-.44L50.72,12.8a.81.81,0,0,0-.72-.45.8.8,0,0,0-.72.45l-1.34,2.71a.81.81,0,0,1-.6.44l-3.24.47a.8.8,0,0,0-.44,1.36L46,20.06a.79.79,0,0,1,.23.71L45.68,24a.8.8,0,0,0,1.16.84l2.79-1.47a.81.81,0,0,1,.74,0l2.79,1.47A.8.8,0,0,0,54.32,24l-.55-3.23a.79.79,0,0,1,.23-.71Z"/></g></svg>